<svg xmlns="http://www.w3.org/2000/svg" width="40" height="41" fill="none"><g fill="#F90" clip-path="url(#a)"><path d="M10.057 16.673c-.137.42-.024.88.293 1.19l3.946 3.858-.908 5.423c-.073.435.108.874.468 1.134.36.259.836.294 1.23.09L20 25.837l4.914 2.533a1.179 1.179 0 0 0 1.23-.092c.36-.259.54-.698.468-1.133l-.907-5.423 3.945-3.858c.317-.31.43-.77.293-1.19A1.171 1.171 0 0 0 29 15.88l-5.475-.819-2.476-4.918A1.174 1.174 0 0 0 20 9.5c-.445 0-.85.25-1.05.644l-2.476 4.918-5.475.819c-.44.065-.804.372-.942.792Zm7.369.603c.377-.056.704-.292.875-.63L20 13.27l1.7 3.375c.17.34.497.575.874.631l3.757.562-2.707 2.647a1.16 1.16 0 0 0-.334 1.02l.622 3.722-3.371-1.738a1.18 1.18 0 0 0-1.082 0l-3.371 1.738.622-3.721a1.16 1.16 0 0 0-.334-1.021l-2.707-2.647 3.757-.562Z"/><path d="M39.127 22.942c-.11-.028-2.092-.534-4.181-.128.184-.892.286-1.79.306-2.684 1.174-.514 3.182-1.63 4.13-3.549 1.357-2.746.054-6.023-.002-6.162a1.174 1.174 0 0 0-1.434-.676c-.132.04-2.91.92-4.478 3.02a15.378 15.378 0 0 0-1.617-2.41c.494-1.117 1.188-3.234.537-5.29-.923-2.919-4.14-4.397-4.276-4.459a1.175 1.175 0 0 0-1.491.467c-.077.128-1.863 3.171-.94 6.09.816 2.58 3.424 4.035 4.112 4.38 7.152 8.286 1.192 21.152-9.793 21.152-11.014 0-17.001-12.93-9.725-21.23.84-.435 3.224-1.854 4.012-4.29.941-2.913-.826-5.968-.902-6.096A1.175 1.175 0 0 0 11.897.6c-.137.06-3.363 1.52-4.304 4.433-.675 2.087.041 4.247.53 5.351a15.512 15.512 0 0 0-1.597 2.377c-1.58-2.092-4.379-2.863-4.512-2.9a1.174 1.174 0 0 0-1.391.689c-.056.138-1.362 3.414-.007 6.161.944 1.915 2.938 2.97 4.125 3.45.023.896.127 1.79.31 2.673-2.082-.414-4.06.078-4.17.106-.61.156-.987.762-.854 1.374.032.15.83 3.707 3.451 5.277 1.146.687 2.435.884 3.538.884.759 0 1.43-.093 1.906-.185.536.57 1.114 1.096 1.727 1.572a5.952 5.952 0 0 0-1.61.757c-2.543 1.723-3.037 5.212-3.057 5.36-.079.589.3 1.142.88 1.285a9.64 9.64 0 0 0 2.123.227c1.205 0 2.724-.22 4.012-1.093 1.553-1.051 2.342-2.762 2.725-3.968 1.361.388 2.797.592 4.278.592 1.46 0 2.877-.199 4.221-.577.39 1.205 1.199 2.954 2.796 4.008 1.257.83 2.724 1.046 3.91 1.046 1.232 0 2.16-.233 2.234-.252.578-.15.95-.707.865-1.295-.022-.148-.557-3.631-3.12-5.324a5.948 5.948 0 0 0-1.602-.733c.64-.494 1.241-1.041 1.798-1.638.49.097 1.155.19 1.903.19 1.088 0 2.348-.197 3.485-.87 2.632-1.554 3.449-5.106 3.482-5.257a1.165 1.165 0 0 0-.845-1.379Zm-27.45 13.531c-.95.643-2.187.728-3.083.68.284-.847.818-1.965 1.764-2.606.95-.644 2.189-.728 3.084-.68-.284.847-.818 1.965-1.764 2.606ZM9.825 5.747c.352-1.089 1.278-1.913 2.014-2.422.3.84.57 2.046.217 3.135-.351 1.088-1.276 1.911-2.012 2.421-.3-.842-.57-2.05-.219-3.134Zm-7.104 9.94c-.51-1.036-.413-2.28-.235-3.156.846.396 1.964 1.087 2.478 2.13.162.328.272.703.33 1.114-.177.62-.312 1.25-.405 1.889-.849-.446-1.74-1.11-2.168-1.977Zm1.968 11.91c-.986-.592-1.613-1.71-1.972-2.577.929-.065 2.199-.009 3.181.58l.01.006a15.668 15.668 0 0 0 1.333 2.537c-.809.028-1.765-.075-2.552-.547Zm26.718 9.557c-.897.058-2.139-.012-3.093-.642-.958-.632-1.503-1.74-1.796-2.583.896-.058 2.138.012 3.092.642.958.632 1.503 1.74 1.797 2.584Zm3.63-22.496c.52-1.052 1.634-1.784 2.487-2.215.17.875.256 2.097-.245 3.11-.433.878-1.33 1.574-2.186 2.055a14.68 14.68 0 0 0-.39-1.81c.056-.422.169-.804.334-1.14Zm-7.12-8.196c-.344-1.091-.067-2.296.238-3.134.733.514 1.653 1.344 1.998 2.435.345 1.09.068 2.294-.237 3.133-.733-.514-1.653-1.343-1.998-2.434Zm7.377 21.113c-.782.462-1.72.563-2.52.535a15.761 15.761 0 0 0 1.326-2.54c.99-.584 2.255-.632 3.179-.561-.366.866-1 1.984-1.985 2.566Z"/></g><defs><clipPath id="a"><path fill="#fff" d="M0 .5h40v40H0z"/></clipPath></defs></svg>