<?xml version="1.0" encoding="iso-8859-1"?>
<!-- Uploaded to: SVG Repo, www.svgrepo.com, Generator: SVG Repo Mixer Tools -->
<svg version="1.1" id="Layer_1" xmlns="http://www.w3.org/2000/svg" xmlns:xlink="http://www.w3.org/1999/xlink" 
	 viewBox="0 0 512 512" xml:space="preserve">
<g>
	<rect x="88.005" y="164.053" style="fill:#BF9484;" width="16" height="31.408"/>
	<rect x="392" y="139.764" style="fill:#BF9484;" width="24" height="79.566"/>
</g>
<rect x="415.996" y="156.002" style="fill:#FBB03B;" width="24" height="47.999"/>
<path style="fill:#F1506E;" d="M96,236L96,236c-13.255,0-24,10.746-24,24v92c0,15.464,12.536,28,28,28l0,0c15.464,0,28-12.536,28-28
	v-84h24v-24h-40v-8L96,236L96,236z"/>
<rect x="72" y="299.996" style="fill:#FFFFFF;" width="56" height="24"/>
<rect x="144.005" y="148.003" style="fill:#FBB03B;" width="216.002" height="47.999"/>
<rect x="200.005" y="148.003" style="fill:#BF9484;" width="79.996" height="24"/>
<polygon style="fill:#F1506E;" points="392,132 392,244 112,244 112,132 144,132 144,196 360,196 360,132 "/>
<path d="M79.62,163.84V172H27.417c-6.295,0-11.416-5.122-11.416-11.416V132H0v28.584c0,15.117,12.299,27.417,27.417,27.417H79.62
	v7.248h16.751v-31.408H79.62V163.84z"/>
<path d="M512,172.216h-63.862v-24.079h-24.079v-8.375h-16.751v79.566h16.751v-7.328h24.079v-23.032H512V172.216z M431.387,195.248
	h-7.328v-30.361h7.328V195.248z"/>
<rect x="87.994" y="339.727" width="24.079" height="16.751"/>
<g>
	<rect x="136.153" y="210.955" style="fill:#FFFFFF;" width="15.704" height="16.751"/>
	<rect x="160.232" y="210.955" style="fill:#FFFFFF;" width="15.704" height="16.751"/>
	<rect x="184.311" y="210.955" style="fill:#FFFFFF;" width="15.704" height="16.751"/>
</g>
<path d="M400,252.001V123.999h-48v15.761H152.001v-15.761h-48v128.001h56.148v24c0,35.208,28.644,63.852,63.852,63.852v-15.704
	c-26.549,0-48.148-21.599-48.148-48.148v-24L400,252.001L400,252.001z M208.392,156.512h62.816v7.328h-62.816V156.512z
	 M191.641,156.512v24.079h96.317v-24.079H352V188H152.001v-31.488H191.641z M120.001,140H136V204h232.001V140H384v96H120.001V140z"
	/>
<path d="M120,291.565H80.001V260c0-8.822,7.177-15.999,15.999-15.999v-16c-17.645,0-31.999,14.355-31.999,31.999v92.001
	c0,19.85,16.15,36,36,36c19.851,0,36.001-16.15,36.001-36V276h16v-16h-32v31.565H120z M120,308.316v6.282H80.001v-6.282H120z
	 M100,371.999c-11.027,0-19.999-8.971-19.999-19.999v-20.653H120V352C120,363.027,111.029,371.999,100,371.999z"/>
</svg>