<?xml version="1.0" encoding="iso-8859-1"?>

<!DOCTYPE svg PUBLIC "-//W3C//DTD SVG 1.1//EN" "http://www.w3.org/Graphics/SVG/1.1/DTD/svg11.dtd">
<!-- Uploaded to: SVG Repo, www.svgrepo.com, Generator: SVG Repo Mixer Tools -->
<svg version="1.1" id="_x34_" xmlns="http://www.w3.org/2000/svg" xmlns:xlink="http://www.w3.org/1999/xlink" 
	 viewBox="0 0 512 512"  xml:space="preserve">
<g>
	<g>
		<path style="fill:#D6AF73;" d="M384.839,82.624V375.1H117.823V82.624h0.739c2.418-16.525,11.218-31.706,24.787-44.603
			c0.47-0.605,1.075-1.076,1.679-1.612c0.47-0.403,0.94-0.874,1.41-1.278c4.367-3.828,9.136-7.388,14.308-10.68
			c0.47-0.269,0.941-0.605,1.411-0.807c0.604-0.335,1.142-0.738,1.679-1.007c8.531-5.24,18.07-9.607,28.347-13.031
			c0.605-0.202,1.142-0.403,1.746-0.605c0.47-0.202,0.873-0.336,1.344-0.471c4.635-1.545,9.471-2.821,14.308-3.897
			c0.47-0.133,0.941-0.2,1.478-0.335c0.538-0.134,1.075-0.269,1.679-0.336c9.069-1.948,18.54-3.157,28.28-3.628
			c0.605-0.067,1.142-0.134,1.679-0.134c0.47,0,1.008-0.067,1.478-0.067C246.528,0,248.947,0,251.365,0c2.351,0,4.702,0,7.12,0.134
			c0.47,0,0.94,0.067,1.411,0.067c0.605,0,1.142,0.067,1.747,0.134c9.807,0.471,19.212,1.679,28.28,3.628
			c0.537,0.067,1.075,0.202,1.679,0.336c0.537,0.134,1.007,0.202,1.478,0.335c4.837,1.076,9.673,2.352,14.241,3.897
			c0.47,0.134,1.008,0.336,1.478,0.471c0.604,0.202,1.209,0.403,1.746,0.605c10.278,3.424,19.682,7.792,28.213,13.031
			c0.605,0.269,1.142,0.672,1.747,1.007c0.538,0.202,0.941,0.471,1.411,0.807c5.172,3.292,9.942,6.919,14.308,10.68
			c0.47,0.403,0.94,0.807,1.41,1.278c0.605,0.536,1.142,1.007,1.679,1.612c13.502,12.83,22.369,28.078,24.787,44.603H384.839z"/>
		<path style="fill:#DFB986;" d="M163.837,22.638V375.1h-20.488V38.021c0.47-0.605,1.075-1.076,1.679-1.612
			c0.47-0.403,0.94-0.874,1.41-1.278c4.367-3.828,9.136-7.388,14.308-10.68c0.47-0.269,0.941-0.605,1.411-0.807
			C162.762,23.311,163.3,22.907,163.837,22.638z"/>
		<path style="fill:#DFB986;" d="M212.74,3.964V375.1h-20.555V9.607c0.605-0.202,1.142-0.403,1.746-0.605
			c0.47-0.202,0.873-0.336,1.344-0.471c4.635-1.545,9.471-2.821,14.308-3.897c0.47-0.133,0.941-0.2,1.478-0.335
			C211.598,4.166,212.135,4.031,212.74,3.964z"/>
		<path style="fill:#DFB986;" d="M261.643,0.336V375.1H241.02V0.336c0.605-0.067,1.142-0.134,1.679-0.134
			c0.47,0,1.008-0.067,1.478-0.067C246.528,0,248.947,0,251.365,0c2.351,0,4.702,0,7.12,0.134c0.47,0,0.94,0.067,1.411,0.067
			C260.501,0.202,261.038,0.269,261.643,0.336z"/>
		<path style="fill:#DFB986;" d="M310.545,9.607V375.1h-20.622V3.964c0.537,0.067,1.075,0.202,1.679,0.336
			c0.537,0.134,1.007,0.202,1.478,0.335c4.837,1.076,9.673,2.352,14.241,3.897c0.47,0.134,1.008,0.336,1.478,0.471
			C309.403,9.204,310.008,9.405,310.545,9.607z"/>
		<path style="fill:#DFB986;" d="M359.313,38.021V375.1h-20.555V22.638c0.605,0.269,1.142,0.672,1.747,1.007
			c0.538,0.202,0.941,0.471,1.411,0.807c5.172,3.292,9.942,6.919,14.308,10.68c0.47,0.403,0.94,0.807,1.41,1.278
			C358.239,36.946,358.776,37.416,359.313,38.021z"/>
		<circle style="fill:#8C8473;" cx="322.238" cy="95.943" r="37.147"/>
		<path style="fill:#FBEFC0;" d="M322.239,113.423c-9.641,0-17.483-7.842-17.483-17.48c0-9.638,7.842-17.48,17.483-17.48
			c9.638,0,17.48,7.842,17.48,17.48C339.719,105.581,331.877,113.423,322.239,113.423z"/>
		<g>
			<polygon style="fill:#D6AF73;" points="477.54,115.942 477.54,375.1 409.224,375.1 409.224,115.942 437.235,69.122 
				443.415,58.777 467.867,99.754 			"/>
			<polygon style="fill:#D6AF73;" points="93.439,115.942 93.439,375.1 25.123,375.1 25.123,115.942 59.315,58.777 			"/>
		</g>
		<rect y="149.396" style="fill:#A39172;" width="511.933" height="49.237"/>
		<polygon style="opacity:0.06;fill:#3C3C3D;" points="511.933,162.897 511.933,198.634 477.54,198.634 477.54,212.136 
			409.224,212.136 409.224,198.634 384.839,198.634 384.839,212.136 117.823,212.136 117.823,198.634 93.439,198.634 
			93.439,212.136 25.123,212.136 25.123,198.634 0,198.634 0,162.897 		"/>
		<rect y="265.404" style="fill:#A39172;" width="511.933" height="49.239"/>
		<polygon style="opacity:0.06;fill:#3C3C3D;" points="511.933,278.974 511.933,314.778 477.54,314.778 477.54,328.28 
			409.224,328.28 409.224,314.778 384.839,314.778 384.839,328.28 117.823,328.28 117.823,314.778 93.439,314.778 93.439,328.28 
			25.123,328.28 25.123,314.778 0,314.778 0,278.974 		"/>
	</g>
	<polygon style="fill:none;" points="384.823,212.156 384.823,265.383 409.197,265.383 409.197,212.156 409.197,198.649 
		384.823,198.649 	"/>
	<path style="opacity:0.1;fill:#191919;" d="M477.54,149.396v-33.454l-9.673-16.188l-24.451-40.977l-6.18,10.345l-28.012,46.82
		v33.454h-24.384V82.624h-0.739c-2.418-16.525-11.285-31.773-24.787-44.603c-0.537-0.605-1.075-1.076-1.679-1.612
		c-0.47-0.471-0.94-0.874-1.41-1.278c-4.366-3.761-9.136-7.388-14.308-10.68c-0.47-0.336-0.873-0.605-1.411-0.807
		c-0.604-0.335-1.142-0.738-1.747-1.007c-8.531-5.24-17.935-9.607-28.213-13.031c-0.537-0.202-1.142-0.403-1.746-0.605
		c-0.47-0.134-1.008-0.336-1.478-0.471c-4.568-1.545-9.404-2.821-14.241-3.897c-0.47-0.133-0.941-0.2-1.478-0.335
		c-0.605-0.134-1.142-0.269-1.679-0.336c-9.069-1.948-18.473-3.157-28.28-3.628c-0.605-0.067-1.142-0.134-1.747-0.134
		c-0.47,0-0.94-0.067-1.411-0.067H256V375.1h128.84v-60.322h24.384V375.1h68.316v-60.322H512v-49.374h-34.46v-66.77H512v-49.237
		H477.54z M409.224,265.404h-24.384v-66.77h24.384V265.404z"/>
</g>
</svg>