<?xml version="1.0" encoding="iso-8859-1"?>
<!-- Uploaded to: SVG Repo, www.svgrepo.com, Generator: SVG Repo Mixer Tools -->
<svg version="1.1" id="Capa_1" xmlns="http://www.w3.org/2000/svg" xmlns:xlink="http://www.w3.org/1999/xlink" 
	 viewBox="0 0 450.794 450.794" xml:space="preserve">
<g>
	<path style="fill:#FFCC66;" d="M240.52,14.298v30.166c60.218,9.457,105.092,61.594,105.092,123.073
		c0,68.704-55.895,124.599-124.6,124.599c-68.704,0-124.599-55.895-124.599-124.599c0-61.48,44.875-113.614,105.093-123.07V14.301
		c-77.319,9.66-134.96,74.593-134.96,153.237c0,85.172,69.294,154.465,154.467,154.465c85.172,0,154.465-69.293,154.465-154.465
		C375.479,89.021,317.791,23.97,240.52,14.298z"/>
	<path style="fill:#FFCC66;" d="M305.747,167.537c0,46.722-38.012,84.732-84.734,84.732c-46.722,0-84.733-38.011-84.733-84.732
		c0-39.495,27.195-73.493,65.227-82.436V54.602c-54.594,9.343-95.093,56.919-95.093,112.935c0,63.19,51.409,114.599,114.599,114.599
		c63.191,0,114.6-51.408,114.6-114.599c0-56.014-40.498-103.591-95.092-112.934v30.5
		C278.551,94.046,305.747,128.043,305.747,167.537z"/>
	<rect x="211.507" y="10" style="fill:#999999;" width="19.014" height="78.76"/>
	<rect x="332.505" y="369.879" style="fill:#FF6666;" width="51.742" height="29.122"/>
	<polygon style="fill:#FFCC66;" points="344.546,422.178 372.207,422.178 377.532,409.001 339.22,409.001 	"/>
	<path style="fill:#FFCC66;" d="M370.999,359.879V234.998c-6.514,14.425-15.053,27.746-25.246,39.605v85.275H370.999z"/>
	<polygon style="fill:#FFCC66;" points="352.068,440.794 364.684,440.794 368.166,432.178 348.587,432.178 	"/>
	<path style="fill:#663333;" d="M389.247,359.879h-8.248V205.705c2.923-12.253,4.48-25.031,4.48-38.167
		c0-41.191-15.299-80.603-43.08-110.975c-26.755-29.25-62.842-47.75-101.959-52.356C240.058,1.825,238.01,0,235.52,0h-29.014
		c-2.492,0-4.541,1.828-4.921,4.213c-38.997,4.594-74.974,22.976-101.718,52.09c-27.936,30.409-43.32,69.914-43.32,111.235
		c0,90.687,73.779,164.465,164.467,164.465c44.59,0,85.084-17.846,114.739-46.759v74.635h-8.248c-2.762,0-5,2.239-5,5v39.122
		c0,2.762,2.238,5,5,5h0.931l15.625,38.667c0.764,1.89,2.598,3.126,4.636,3.126h19.359c2.039,0,3.873-1.236,4.637-3.126
		l15.625-38.667h0.93c2.762,0,5-2.238,5-5v-39.122C394.247,362.118,392.009,359.879,389.247,359.879z M240.52,54.603
		c54.594,9.343,95.092,56.92,95.092,112.934c0,63.19-51.408,114.599-114.6,114.599c-63.19,0-114.599-51.408-114.599-114.599
		c0-56.016,40.499-103.592,95.093-112.935v30.499c-38.031,8.943-65.227,42.942-65.227,82.436c0,46.722,38.011,84.732,84.733,84.732
		c46.722,0,84.734-38.011,84.734-84.732c0-39.494-27.196-73.491-65.227-82.435V54.603z M211.507,10h19.014v78.76h-19.014V10z
		 M201.778,95.314c0.656,1.996,2.514,3.446,4.729,3.446h29.014c2.209,0,4.061-1.442,4.723-3.427
		c32.479,8.594,55.504,38.072,55.504,72.205c0,41.208-33.525,74.732-74.734,74.732c-41.208,0-74.733-33.525-74.733-74.732
		C146.28,133.403,169.299,103.909,201.778,95.314z M221.014,322.003c-85.173,0-154.467-69.293-154.467-154.465
		c0-78.645,57.641-143.577,134.96-153.237v30.166c-60.218,9.457-105.093,61.59-105.093,123.07
		c0,68.704,55.895,124.599,124.599,124.599c68.705,0,124.6-55.895,124.6-124.599c0-61.479-44.874-113.616-105.092-123.073V14.298
		c77.271,9.672,134.959,74.723,134.959,153.24C375.479,252.71,306.186,322.003,221.014,322.003z M370.999,234.998v124.881h-25.246
		v-85.275C355.946,262.744,364.485,249.423,370.999,234.998z M364.684,440.794h-12.616l-3.481-8.616h19.579L364.684,440.794z
		 M372.207,422.178h-27.661l-5.325-13.177h38.312L372.207,422.178z M384.247,399.001h-51.742v-29.122h51.742V399.001z"/>
</g>
</svg>