<svg xmlns="http://www.w3.org/2000/svg" width="41" height="41" fill="none"><g fill="#F90" clip-path="url(#a)"><path d="M39.168 38.155h-4.383c-3.52 0-6.386-2.867-6.386-6.391V27a3.547 3.547 0 0 0-3.542-3.545H23.06V4.12c-.2-4.829-7.074-4.825-7.273 0v19.336h-1.51a3.547 3.547 0 0 0-3.543 3.545v4.763a8.716 8.716 0 0 0 2.785 6.39H1.499c-1.555.063-1.554 2.285 0 2.346h37.669c1.554-.062 1.553-2.284 0-2.345Zm-21.442-7.04h2.99v.649a8.716 8.716 0 0 0 2.75 6.358 6.398 6.398 0 0 1-5.74-6.358v-.65Zm11.08 7.008a6.398 6.398 0 0 1-5.746-6.36v-.649h2.996v.65a8.716 8.716 0 0 0 2.75 6.359ZM18.13 4.12c.071-1.716 2.515-1.715 2.585 0v19.336h-2.585V4.12Zm-3.855 21.682h10.581a1.2 1.2 0 0 1 1.199 1.2v1.767H13.078v-1.768a1.2 1.2 0 0 1 1.198-1.2Zm-1.198 5.962v-.65h2.305v.65c0 2.43.996 4.63 2.602 6.216a6.4 6.4 0 0 1-4.907-6.216ZM27.358 8.679l1.946.29c1.38.205 2.448 1.254 2.657 2.61l.294 1.914c.232 1.343 2.167 1.342 2.398 0l.295-1.913c.21-1.357 1.277-2.406 2.657-2.612a.916.916 0 0 0 .025-.004l1.703-.29c1.334-.248 1.333-2.1 0-2.349l-1.703-.29a3.209 3.209 0 0 1-.775-.21 3.14 3.14 0 0 1-1.907-2.405l-.295-1.913c-.232-1.343-2.166-1.342-2.398 0l-.294 1.913c-.21 1.357-1.277 2.406-2.657 2.612l-1.946.29c-1.367.228-1.366 2.129 0 2.357Zm6.103-2.634c.392.567.891 1.06 1.47 1.45a5.503 5.503 0 0 0-1.477 1.45 5.5 5.5 0 0 0-1.47-1.445 5.503 5.503 0 0 0 1.477-1.455Z"/><path d="m1.358 19.18 1.778.264c1.215.18 2.155 1.105 2.34 2.3l.269 1.748c.232 1.344 2.166 1.344 2.398 0l.27-1.748c.183-1.195 1.123-2.119 2.339-2.3l.025-.004 1.556-.265c1.334-.248 1.333-2.102 0-2.35l-1.556-.265a2.826 2.826 0 0 1-.686-.186 2.766 2.766 0 0 1-1.679-2.118l-.269-1.748c-.232-1.344-2.167-1.344-2.399 0l-.269 1.748c-.184 1.195-1.124 2.119-2.339 2.3l-1.778.265c-1.367.228-1.366 2.13 0 2.358Zm5.592-2.33c.322.438.714.826 1.16 1.146a5.125 5.125 0 0 0-1.166 1.145A5.123 5.123 0 0 0 5.783 18c.45-.32.843-.707 1.167-1.15Z"/></g><defs><clipPath id="a"><path fill="#fff" d="M.333.5h40v40h-40z"/></clipPath></defs></svg>