<svg xmlns="http://www.w3.org/2000/svg" width="38" height="41" fill="none"><path fill="#F90" d="M30.532 28.156s-7.922.009-7.999.024v-2.384c4.51-1.48 7.776-5.712 7.776-10.69V5.578c0-2.8-2.29-5.078-5.103-5.078H12.798C9.984.5 7.694 2.778 7.694 5.578l-.003 9.528c0 4.978 3.265 9.21 7.776 10.69v2.36h-8C3.35 28.156 0 31.031 0 34.564v4.764c0 .647.527 1.172 1.178 1.172.65 0 1.177-.525 1.177-1.172v-4.764c0-1.04.507-2.033 1.426-2.799.193-.16.4-.306.616-.438v8.001c0 .647.527 1.172 1.177 1.172s1.178-.525 1.178-1.172v-8.787c.235-.027 2.355-.041 2.355-.041v6.021c0 .647.528 1.172 1.178 1.172h17.43c.65 0 1.178-.525 1.178-1.172V30.5s2.12.014 2.355.04v8.788c0 .647.527 1.172 1.178 1.172.65 0 1.177-.525 1.177-1.172v-8c.217.13.423.277.616.437.92.765 1.426 1.76 1.426 2.799v4.764c0 .647.527 1.172 1.177 1.172S38 39.975 38 39.328v-4.764c0-3.533-3.35-6.408-7.468-6.408ZM12.798 2.844h12.408a2.744 2.744 0 0 1 2.748 2.734v4.35c-3.34-1.149-6.155-1.669-8.952-1.67h-.003c-2.798 0-5.612.521-8.95 1.67v-4.35a2.744 2.744 0 0 1 2.749-2.734Zm15.044 9.531c-.13.403-.374.735-.743 1.02a2.109 2.109 0 0 1-1.897.387c-2.145-.554-4.172-.831-6.2-.831-2.028 0-4.057.277-6.2.83a2.11 2.11 0 0 1-1.898-.386c-.37-.285-.613-.617-.742-1.02 6.5-2.35 11.171-2.351 17.68 0Zm-17.779 3.266a4.469 4.469 0 0 0 3.33.41c3.931-1.016 7.286-1.016 11.217 0a4.7 4.7 0 0 0 1.177.151c.752 0 1.483-.189 2.15-.558-.28 4.663-4.181 8.372-8.937 8.372-4.756 0-8.658-3.71-8.937-8.375ZM19 26.36c.398 0 .79-.02 1.178-.06v3.103c0 .646-.529 1.172-1.178 1.172-.65 0-1.178-.526-1.178-1.172v-3.104c.387.04.78.061 1.178.061Zm7.537 8.99H11.463V30.5h4.181a3.537 3.537 0 0 0 6.734-.068c.124.044 4.16.069 4.16.069v4.85Z"/></svg>