<svg xmlns="http://www.w3.org/2000/svg" width="41" height="41" fill="none"><g fill="#F90" clip-path="url(#a)"><path d="M30.121 14.954h-5.909V9.046A3.55 3.55 0 0 0 20.667 5.5h-2.364c-.653 0-1.182.53-1.182 1.182v7.09c0 .652-.53 1.182-1.182 1.182H8.85c-.653 0-1.182.53-1.182 1.182v14.182c0 .653.529 1.182 1.181 1.182h18.91a3.54 3.54 0 0 0 3.44-2.684l2.363-9.454a3.55 3.55 0 0 0-3.44-4.407Zm-20.09 2.364h4.726v11.818H10.03V17.318Zm21.237 1.47-2.364 9.455a1.179 1.179 0 0 1-1.146.893H17.12V17.115a3.551 3.551 0 0 0 2.364-3.342v-5.91h1.182c.651 0 1.181.53 1.181 1.182v7.091c0 .653.53 1.182 1.182 1.182h7.091a1.183 1.183 0 0 1 1.147 1.47Z"/><path d="M34.807.5H6.526a5.866 5.866 0 0 0-5.86 5.86v23.593c0 3.231 2.63 5.86 5.86 5.86h3.594v3.515a1.172 1.172 0 0 0 2 .829l4.345-4.344h18.342c3.231 0 5.86-2.629 5.86-5.86V6.36c0-3.23-2.629-5.859-5.86-5.859Zm3.516 29.453a3.52 3.52 0 0 1-3.516 3.516H15.98c-.31 0-.609.123-.829.343l-2.687 2.687v-1.858c0-.648-.524-1.172-1.171-1.172H6.526a3.52 3.52 0 0 1-3.516-3.516V6.36a3.52 3.52 0 0 1 3.516-3.515h28.281a3.52 3.52 0 0 1 3.516 3.515v23.594Z"/></g><defs><clipPath id="a"><path fill="#fff" d="M.667.5h40v40h-40z"/></clipPath></defs></svg>