<?xml version="1.0" encoding="iso-8859-1"?>
<!-- Uploaded to: SVG Repo, www.svgrepo.com, Generator: SVG Repo Mixer Tools -->
<svg height="800px" width="800px" version="1.1" id="Layer_1" xmlns="http://www.w3.org/2000/svg" xmlns:xlink="http://www.w3.org/1999/xlink" 
	 viewBox="0 0 512 512" xml:space="preserve">
<path style="fill:#F4D371;" d="M460.252,23.27C460.251,10.418,449.832,0,436.98,0H23.273C10.42,0,0,10.42,0,23.273v413.736
	c0,12.853,10.42,23.273,23.273,23.273s23.273-10.42,23.273-23.273V434.1l367.388-45.925c1.424,11.489,11.203,20.388,23.077,20.388
	c12.853,0,23.273-10.422,23.271-23.274L460.252,23.27z"/>
<path style="fill:#E9A35F;" d="M460.252,23.27C460.251,10.418,449.832,0,436.98,0H230.141v411.15l183.792-22.975
	c1.424,11.489,11.203,20.388,23.077,20.388c12.853,0,23.273-10.422,23.271-23.274L460.252,23.27z"/>
<path style="fill:#AA3827;" d="M372.354,23.27C372.353,10.417,361.933-0.002,349.08,0c-12.854,0.002-23.273,10.422-23.271,23.276
	l0.033,362.018c0.002,12.853,10.422,23.273,23.274,23.271c12.854-0.002,23.273-10.422,23.271-23.274L372.354,23.27z"/>
<g>
	<path style="fill:#B66D38;" d="M230.122,0c-12.854,0.002-23.273,10.422-23.271,23.276l0.033,362.018
		c0.002,12.853,10.422,23.273,23.274,23.271c12.854-0.002,23.273-10.422,23.271-23.274l-0.033-362.018
		C253.395,10.417,242.975-0.002,230.122,0z"/>
	<path style="fill:#B66D38;" d="M111.165,0C98.31,0.002,87.892,10.422,87.893,23.276l0.034,362.018
		c0.002,12.853,10.422,23.273,23.274,23.271c12.854-0.002,23.273-10.422,23.271-23.274L134.439,23.27
		C134.437,10.417,124.019-0.002,111.165,0z"/>
</g>
<path style="fill:#AA3827;" d="M253.397,23.27C253.395,10.423,242.984,0.008,230.141,0v408.562c0.006,0,0.012,0,0.019,0
	c12.854-0.002,23.273-10.422,23.271-23.274L253.397,23.27z"/>
<g>
	<path style="fill:#E9A35F;" d="M437.009,362.018H74.988C33.64,362.018,0,395.66,0,437.009S33.64,512,74.988,512h362.021
		C478.358,512,512,478.358,512,437.009S478.358,362.018,437.009,362.018z"/>
	<circle style="fill:#E9A35F;" cx="74.985" cy="437.015" r="51.712"/>
</g>
<path style="fill:#F4D371;" d="M74.988,512C33.64,512,0,478.358,0,437.009s33.64-74.991,74.988-74.991
	c41.349,0,74.991,33.642,74.991,74.991S116.337,512,74.988,512z M74.988,408.564c-15.683,0-28.442,12.761-28.442,28.445
	c0,15.684,12.76,28.445,28.442,28.445c15.684,0,28.445-12.761,28.445-28.445C103.433,421.325,90.672,408.564,74.988,408.564z"/>
</svg>