<svg width="174" height="29" viewBox="0 0 174 29" fill="none" xmlns="http://www.w3.org/2000/svg">
<g clip-path="url(#clip0_0_54)">
<path d="M5.50049 20.7086H8.30547V28.4673H5.50049V20.7086Z" fill="#FF861E"/>
<path d="M0.497314 28.4696H3.37559V19.646C3.37559 19.0591 3.85135 18.5833 4.43823 18.5833H9.3685C9.95538 18.5833 10.4311 19.0591 10.4311 19.646V28.4695H13.3469V15.6534H0.497314V28.4696Z" fill="#FF861E"/>
<path d="M5.50049 0.714569H8.30547V8.4732H5.50049V0.714569Z" fill="#FF861E"/>
<path d="M0.497192 1.73965V13.5283H13.3469V0.712097H10.4311V9.53568C10.4311 10.1226 9.95532 10.5983 9.36844 10.5983H4.43811C3.85122 10.5983 3.37547 10.1226 3.37547 9.53568V0.712097H1.52475C0.957247 0.712097 0.497192 1.17215 0.497192 1.73965Z" fill="#FF861E"/>
<path d="M20.4954 15.6534H23.3003V23.4121H20.4954V15.6534Z" fill="#FF861E"/>
<path d="M28.3218 13.5281V1.7395C28.3218 1.172 27.8617 0.711945 27.2942 0.711945H15.4722V13.5281H18.3697V4.7069C18.3697 4.12001 18.8455 3.64426 19.4324 3.64426H24.3626C24.9495 3.64426 25.4253 4.12001 25.4253 4.7069V13.5282L28.3218 13.5281Z" fill="#FF861E"/>
<path d="M15.4722 28.4696H28.3219V15.6534H25.4253V24.4747C25.4253 25.0616 24.9495 25.5374 24.3626 25.5374H19.4324C18.8455 25.5374 18.3697 25.0616 18.3697 24.4747V15.6534H15.4722V28.4696Z" fill="#FF861E"/>
<path d="M20.4954 5.76978H23.3003V13.5284H20.4954V5.76978Z" fill="#FF861E"/>
</g>
<path d="M45.5261 11.3234L39.8212 28.7119H35.2256L43.0194 7.73619H45.9439L45.5261 11.3234ZM50.2658 28.7119L44.5465 11.3234L44.0855 7.73619H47.0388L54.8759 28.7119H50.2658ZM50.0065 20.9036V24.2891H38.928V20.9036H50.0065Z" fill="white"/>
<path d="M59.9539 16.5241V28.7119H55.8049V13.1242H59.709L59.9539 16.5241ZM64.6504 13.0233L64.5784 16.8698C64.3767 16.841 64.1318 16.817 63.8437 16.7978C63.5651 16.769 63.3106 16.7546 63.0801 16.7546C62.4943 16.7546 61.9852 16.8314 61.553 16.9851C61.1305 17.1291 60.7751 17.3452 60.487 17.6334C60.2085 17.9215 59.9972 18.272 59.8531 18.685C59.7186 19.098 59.6418 19.5686 59.6226 20.0969L58.787 19.8375C58.787 18.8291 58.8879 17.9023 59.0896 17.0571C59.2912 16.2023 59.5842 15.458 59.9683 14.8241C60.3621 14.1902 60.8423 13.7004 61.409 13.3547C61.9756 13.0089 62.6239 12.836 63.3538 12.836C63.5843 12.836 63.8197 12.8553 64.0598 12.8937C64.2999 12.9225 64.4968 12.9657 64.6504 13.0233Z" fill="white"/>
<path d="M72.0047 25.7586C72.5137 25.7586 72.9651 25.6625 73.3589 25.4704C73.7527 25.2687 74.06 24.9902 74.2809 24.6349C74.5114 24.2699 74.6315 23.8425 74.6411 23.3527H78.5452C78.5356 24.4476 78.2426 25.4224 77.6664 26.2772C77.0901 27.1224 76.317 27.7899 75.347 28.2797C74.3769 28.7599 73.2917 29 72.0911 29C70.881 29 69.8245 28.7983 68.9217 28.3949C68.0285 27.9915 67.2842 27.4345 66.6887 26.7238C66.0933 26.0035 65.6467 25.1679 65.3489 24.2171C65.0512 23.2567 64.9023 22.229 64.9023 21.1341V20.7163C64.9023 19.6118 65.0512 18.5842 65.3489 17.6334C65.6467 16.6729 66.0933 15.8374 66.6887 15.1267C67.2842 14.4063 68.0285 13.8445 68.9217 13.4411C69.8149 13.0377 70.8618 12.836 72.0623 12.836C73.3397 12.836 74.4586 13.081 75.419 13.5708C76.389 14.0606 77.1478 14.7617 77.6952 15.6741C78.2523 16.5769 78.5356 17.6478 78.5452 18.8867H74.6411C74.6315 18.3681 74.521 17.8975 74.3097 17.4749C74.108 17.0523 73.8103 16.7162 73.4165 16.4665C73.0323 16.2071 72.5569 16.0775 71.9903 16.0775C71.3852 16.0775 70.8906 16.2071 70.5064 16.4665C70.1223 16.7162 69.8245 17.0619 69.6132 17.5037C69.4019 17.9359 69.2531 18.4305 69.1666 18.9876C69.0898 19.535 69.0514 20.1113 69.0514 20.7163V21.1341C69.0514 21.7392 69.0898 22.3202 69.1666 22.8773C69.2435 23.4343 69.3875 23.929 69.5988 24.3611C69.8197 24.7933 70.1223 25.1343 70.5064 25.384C70.8906 25.6337 71.39 25.7586 72.0047 25.7586Z" fill="white"/>
<path d="M84.2427 6.58368V28.7119H80.0937V6.58368H84.2427ZM83.6521 20.3706H82.514C82.5236 19.2853 82.6676 18.2865 82.9461 17.3741C83.2247 16.452 83.6232 15.6549 84.1419 14.9826C84.6605 14.3007 85.28 13.7725 86.0003 13.3979C86.7302 13.0233 87.537 12.836 88.4206 12.836C89.1889 12.836 89.8852 12.9465 90.5095 13.1674C91.1434 13.3787 91.686 13.7244 92.1374 14.2047C92.5984 14.6753 92.9538 15.2947 93.2035 16.0631C93.4532 16.8314 93.578 17.763 93.578 18.8579V28.7119H89.4002V18.8291C89.4002 18.1376 89.2994 17.5949 89.0977 17.2012C88.9056 16.7978 88.6223 16.5145 88.2477 16.3512C87.8827 16.1783 87.4313 16.0919 86.8935 16.0919C86.298 16.0919 85.789 16.2023 85.3664 16.4232C84.9534 16.6441 84.6221 16.9515 84.3724 17.3452C84.1227 17.7294 83.9402 18.1808 83.8249 18.6994C83.7097 19.2181 83.6521 19.7751 83.6521 20.3706Z" fill="white"/>
<path d="M100.356 13.1242V28.7119H96.1926V13.1242H100.356ZM95.9333 9.06158C95.9333 8.45651 96.1446 7.95709 96.5672 7.56331C96.9898 7.16954 97.5564 6.97265 98.2671 6.97265C98.9683 6.97265 99.5301 7.16954 99.9527 7.56331C100.385 7.95709 100.601 8.45651 100.601 9.06158C100.601 9.66664 100.385 10.1661 99.9527 10.5598C99.5301 10.9536 98.9683 11.1505 98.2671 11.1505C97.5564 11.1505 96.9898 10.9536 96.5672 10.5598C96.1446 10.1661 95.9333 9.66664 95.9333 9.06158Z" fill="white"/>
<path d="M114.208 23.223C114.208 22.8485 114.15 22.5123 114.035 22.2146C113.929 21.9073 113.727 21.6287 113.43 21.379C113.132 21.1197 112.714 20.8652 112.176 20.6155C111.638 20.3658 110.942 20.1065 110.087 19.8375C109.137 19.5302 108.234 19.1845 107.379 18.8003C106.534 18.4161 105.785 17.9695 105.132 17.4605C104.488 16.9419 103.979 16.3416 103.605 15.6597C103.24 14.9778 103.057 14.1854 103.057 13.2826C103.057 12.4087 103.249 11.6163 103.633 10.9056C104.018 10.1853 104.555 9.5706 105.247 9.06158C105.938 8.54295 106.755 8.14437 107.696 7.86585C108.647 7.58732 109.689 7.44806 110.822 7.44806C112.368 7.44806 113.718 7.72658 114.87 8.28363C116.023 8.84068 116.916 9.60422 117.55 10.5742C118.193 11.5443 118.515 12.6536 118.515 13.9021H114.222C114.222 13.2874 114.092 12.7496 113.833 12.2886C113.583 11.818 113.199 11.4482 112.681 11.1793C112.172 10.9104 111.528 10.7759 110.75 10.7759C110.001 10.7759 109.377 10.8912 108.877 11.1217C108.378 11.3426 108.003 11.6451 107.754 12.0293C107.504 12.4039 107.379 12.8264 107.379 13.297C107.379 13.6524 107.465 13.9741 107.638 14.2623C107.821 14.5504 108.09 14.8193 108.445 15.069C108.8 15.3187 109.237 15.554 109.756 15.7749C110.275 15.9958 110.875 16.2119 111.557 16.4232C112.7 16.769 113.703 17.158 114.568 17.5901C115.442 18.0223 116.172 18.5074 116.758 19.0452C117.343 19.583 117.785 20.1929 118.083 20.8748C118.381 21.5567 118.53 22.3298 118.53 23.1942C118.53 24.1066 118.352 24.923 117.996 25.6433C117.641 26.3636 117.127 26.9735 116.455 27.4729C115.783 27.9723 114.981 28.3517 114.049 28.611C113.118 28.8703 112.075 29 110.923 29C109.886 29 108.863 28.8655 107.854 28.5966C106.846 28.3181 105.929 27.9003 105.103 27.3433C104.286 26.7862 103.633 26.0755 103.144 25.2111C102.654 24.3467 102.409 23.3239 102.409 22.1426H106.745C106.745 22.7957 106.846 23.3479 107.048 23.7993C107.249 24.2507 107.533 24.6157 107.898 24.8942C108.272 25.1727 108.714 25.3744 109.223 25.4992C109.742 25.6241 110.308 25.6865 110.923 25.6865C111.672 25.6865 112.287 25.5809 112.767 25.3696C113.257 25.1583 113.617 24.8654 113.847 24.4908C114.088 24.1162 114.208 23.6936 114.208 23.223Z" fill="white"/>
<path d="M128.088 13.1242V16.0631H119.012V13.1242H128.088ZM121.259 9.27767H125.408V24.0154C125.408 24.4668 125.466 24.8125 125.581 25.0526C125.706 25.2928 125.889 25.4608 126.129 25.5569C126.369 25.6433 126.671 25.6865 127.036 25.6865C127.296 25.6865 127.526 25.6769 127.728 25.6577C127.939 25.6289 128.117 25.6001 128.261 25.5713L128.275 28.6254C127.92 28.7407 127.536 28.8319 127.123 28.8992C126.71 28.9664 126.254 29 125.754 29C124.842 29 124.045 28.8511 123.363 28.5534C122.69 28.2461 122.172 27.7562 121.807 27.0839C121.442 26.4116 121.259 25.5281 121.259 24.4332V9.27767Z" fill="white"/>
<path d="M134.074 13.1242V28.7119H129.91V13.1242H134.074ZM129.651 9.06158C129.651 8.45651 129.862 7.95709 130.285 7.56331C130.707 7.16954 131.274 6.97265 131.985 6.97265C132.686 6.97265 133.248 7.16954 133.67 7.56331C134.102 7.95709 134.319 8.45651 134.319 9.06158C134.319 9.66664 134.102 10.1661 133.67 10.5598C133.248 10.9536 132.686 11.1505 131.985 11.1505C131.274 11.1505 130.707 10.9536 130.285 10.5598C129.862 10.1661 129.651 9.66664 129.651 9.06158Z" fill="white"/>
<path d="M144.381 13.1242V16.0631H135.305V13.1242H144.381ZM137.553 9.27767H141.702V24.0154C141.702 24.4668 141.759 24.8125 141.874 25.0526C141.999 25.2928 142.182 25.4608 142.422 25.5569C142.662 25.6433 142.965 25.6865 143.33 25.6865C143.589 25.6865 143.819 25.6769 144.021 25.6577C144.232 25.6289 144.41 25.6001 144.554 25.5713L144.568 28.6254C144.213 28.7407 143.829 28.8319 143.416 28.8992C143.003 28.9664 142.547 29 142.047 29C141.135 29 140.338 28.8511 139.656 28.5534C138.984 28.2461 138.465 27.7562 138.1 27.0839C137.735 26.4116 137.553 25.5281 137.553 24.4332V9.27767Z" fill="white"/>
<path d="M152.427 25.7586C152.936 25.7586 153.387 25.6625 153.781 25.4704C154.175 25.2687 154.482 24.9902 154.703 24.6349C154.934 24.2699 155.054 23.8425 155.063 23.3527H158.967C158.958 24.4476 158.665 25.4224 158.089 26.2772C157.512 27.1224 156.739 27.7899 155.769 28.2797C154.799 28.7599 153.714 29 152.513 29C151.303 29 150.247 28.7983 149.344 28.3949C148.451 27.9915 147.706 27.4345 147.111 26.7238C146.516 26.0035 146.069 25.1679 145.771 24.2171C145.474 23.2567 145.325 22.229 145.325 21.1341V20.7163C145.325 19.6118 145.474 18.5842 145.771 17.6334C146.069 16.6729 146.516 15.8374 147.111 15.1267C147.706 14.4063 148.451 13.8445 149.344 13.4411C150.237 13.0377 151.284 12.836 152.485 12.836C153.762 12.836 154.881 13.081 155.841 13.5708C156.811 14.0606 157.57 14.7617 158.117 15.6741C158.675 16.5769 158.958 17.6478 158.967 18.8867H155.063C155.054 18.3681 154.943 17.8975 154.732 17.4749C154.53 17.0523 154.233 16.7162 153.839 16.4665C153.455 16.2071 152.979 16.0775 152.413 16.0775C151.808 16.0775 151.313 16.2071 150.929 16.4665C150.545 16.7162 150.247 17.0619 150.036 17.5037C149.824 17.9359 149.675 18.4305 149.589 18.9876C149.512 19.535 149.474 20.1113 149.474 20.7163V21.1341C149.474 21.7392 149.512 22.3202 149.589 22.8773C149.666 23.4343 149.81 23.929 150.021 24.3611C150.242 24.7933 150.545 25.1343 150.929 25.384C151.313 25.6337 151.812 25.7586 152.427 25.7586Z" fill="white"/>
<path d="M164.665 6.58368V28.7119H160.516V6.58368H164.665ZM164.074 20.3706H162.936C162.946 19.2853 163.09 18.2865 163.368 17.3741C163.647 16.452 164.046 15.6549 164.564 14.9826C165.083 14.3007 165.702 13.7725 166.423 13.3979C167.153 13.0233 167.959 12.836 168.843 12.836C169.611 12.836 170.308 12.9465 170.932 13.1674C171.566 13.3787 172.108 13.7244 172.56 14.2047C173.021 14.6753 173.376 15.2947 173.626 16.0631C173.875 16.8314 174 17.763 174 18.8579V28.7119H169.822V18.8291C169.822 18.1376 169.722 17.5949 169.52 17.2012C169.328 16.7978 169.045 16.5145 168.67 16.3512C168.305 16.1783 167.854 16.0919 167.316 16.0919C166.72 16.0919 166.211 16.2023 165.789 16.4232C165.376 16.6441 165.044 16.9515 164.795 17.3452C164.545 17.7294 164.362 18.1808 164.247 18.6994C164.132 19.2181 164.074 19.7751 164.074 20.3706Z" fill="white"/>
<defs>
<clipPath id="clip0_0_54">
<rect width="28.821" height="28.2873" fill="white" transform="translate(0 0.712738)"/>
</clipPath>
</defs>
</svg>
