<svg width="136" height="20" viewBox="0 0 136 20" fill="none" xmlns="http://www.w3.org/2000/svg">
<g clip-path="url(#clip0_1_38)">
<path fill-rule="evenodd" clip-rule="evenodd" d="M10.4897 0L12.966 7.59538H20.9795L14.4964 12.2895L16.9728 19.8849L10.4897 15.1908L4.00667 19.8849L6.48292 12.2895L0 7.59538H8.0135L10.4897 0Z" fill="#CF8027"/>
<path fill-rule="evenodd" clip-rule="evenodd" d="M39.3282 0L41.8045 7.59538H49.818L43.3349 12.2895L45.8113 19.8849L39.3282 15.1908L32.8452 19.8849L35.3214 12.2895L28.8385 7.59538H36.852L39.3282 0Z" fill="#CF8027"/>
<path fill-rule="evenodd" clip-rule="evenodd" d="M68.0338 0L70.5101 7.59538H78.5236L72.0405 12.2895L74.5169 19.8849L68.0338 15.1908L61.5507 19.8849L64.027 12.2895L57.5441 7.59538H65.5576L68.0338 0Z" fill="#CF8027"/>
<path fill-rule="evenodd" clip-rule="evenodd" d="M96.7369 0L99.2132 7.59538H107.227L100.744 12.2895L103.22 19.8849L96.7369 15.1908L90.2539 19.8849L92.7301 12.2895L86.2472 7.59538H94.2607L96.7369 0Z" fill="#CF8027"/>
<path fill-rule="evenodd" clip-rule="evenodd" d="M125.431 0L127.907 7.59538H135.921L129.437 12.2895L131.914 19.8849L125.431 15.1908L118.948 19.8849L121.424 12.2895L114.941 7.59538H122.955L125.431 0Z" fill="#CF8027"/>
</g>
<defs>
<clipPath id="clip0_1_38">
<rect width="136" height="20" fill="white"/>
</clipPath>
</defs>
</svg>
