<svg xmlns="http://www.w3.org/2000/svg" xmlns:xlink="http://www.w3.org/1999/xlink" width="256" zoomAndPan="magnify" viewBox="0 0 192 34.499999" height="46" preserveAspectRatio="xMidYMid meet" version="1.2"><defs><clipPath id="84dd749c84"><path d="M 11.808594 10 L 35 10 L 35 33.269531 L 11.808594 33.269531 Z M 11.808594 10 "/></clipPath><clipPath id="9ab92bc57d"><path d="M 30 0 L 45.078125 0 L 45.078125 15 L 30 15 Z M 30 0 "/></clipPath></defs><g id="ddfcd08706"><g style="fill:#ffffff;fill-opacity:1;"><g transform="translate(56.044805, 20.243547)"><path style="stroke:none" d="M 5.4375 -11.078125 C 6.34375 -11.078125 7.09375 -10.859375 7.6875 -10.421875 C 8.488281 -9.847656 8.890625 -8.945312 8.890625 -7.71875 C 8.890625 -6.832031 8.644531 -6.070312 8.15625 -5.4375 C 7.613281 -4.769531 6.863281 -4.4375 5.90625 -4.4375 C 5.40625 -4.4375 4.945312 -4.554688 4.53125 -4.796875 C 4.113281 -5.046875 3.875 -5.460938 3.8125 -6.046875 L 3.9375 -6.09375 C 4.050781 -5.644531 4.316406 -5.335938 4.734375 -5.171875 C 5.015625 -5.046875 5.257812 -4.984375 5.46875 -4.984375 C 6.320312 -4.984375 6.9375 -5.3125 7.3125 -5.96875 C 7.59375 -6.457031 7.734375 -7.035156 7.734375 -7.703125 C 7.734375 -8.773438 7.4375 -9.550781 6.84375 -10.03125 C 6.382812 -10.394531 5.804688 -10.578125 5.109375 -10.578125 C 4.941406 -10.578125 4.796875 -10.566406 4.671875 -10.546875 C 4.554688 -10.535156 4.039062 -10.453125 3.125 -10.296875 L 3.125 -1.125 C 3.132812 -0.851562 3.238281 -0.625 3.4375 -0.4375 C 3.632812 -0.25 3.859375 -0.15625 4.109375 -0.15625 L 4.3125 -0.15625 L 4.3125 0 L 0.921875 0 L 0.921875 -0.15625 L 1.125 -0.15625 C 1.382812 -0.15625 1.613281 -0.25 1.8125 -0.4375 C 2.007812 -0.625 2.113281 -0.851562 2.125 -1.125 L 2.125 -9.5 C 2.125 -9.769531 2.046875 -9.976562 1.890625 -10.125 C 1.734375 -10.269531 1.53125 -10.34375 1.28125 -10.34375 C 1.226562 -10.34375 1.175781 -10.335938 1.125 -10.328125 L 0.9375 -10.3125 L 0.90625 -10.46875 C 1.445312 -10.519531 2.164062 -10.617188 3.0625 -10.765625 C 3.96875 -10.921875 4.53125 -11.007812 4.75 -11.03125 C 4.96875 -11.0625 5.195312 -11.078125 5.4375 -11.078125 Z M 5.4375 -11.078125 "/></g></g><g style="fill:#ffffff;fill-opacity:1;"><g transform="translate(64.428252, 20.243547)"><path style="stroke:none" d="M 1.84375 -11.359375 C 2.507812 -11.628906 3.15625 -11.765625 3.78125 -11.765625 C 4.289062 -11.765625 4.820312 -11.578125 5.375 -11.203125 C 5.664062 -10.992188 6 -10.59375 6.375 -10 C 6.625 -9.582031 6.9375 -8.832031 7.3125 -7.75 L 9.203125 -2.390625 C 9.640625 -1.203125 10.082031 -0.253906 10.53125 0.453125 C 10.976562 1.160156 11.382812 1.691406 11.75 2.046875 C 12.125 2.398438 12.507812 2.648438 12.90625 2.796875 C 13.3125 2.941406 13.644531 3.015625 13.90625 3.015625 C 14.175781 3.015625 14.414062 2.992188 14.625 2.953125 L 14.640625 3.109375 C 14.140625 3.273438 13.648438 3.359375 13.171875 3.359375 C 12.703125 3.359375 12.226562 3.234375 11.75 2.984375 C 11.28125 2.742188 10.835938 2.410156 10.421875 1.984375 C 9.535156 1.085938 8.785156 -0.28125 8.171875 -2.125 L 7.5625 -3.875 L 3.328125 -3.875 L 2.265625 -1.125 C 2.210938 -1 2.1875 -0.875 2.1875 -0.75 C 2.1875 -0.632812 2.238281 -0.503906 2.34375 -0.359375 C 2.445312 -0.222656 2.613281 -0.15625 2.84375 -0.15625 L 2.96875 -0.15625 L 2.96875 0 L -0.140625 0 L -0.140625 -0.15625 L 0 -0.15625 C 0.25 -0.15625 0.488281 -0.226562 0.71875 -0.375 C 0.957031 -0.53125 1.15625 -0.753906 1.3125 -1.046875 L 5.15625 -10.234375 C 4.59375 -11.035156 3.898438 -11.4375 3.078125 -11.4375 C 2.703125 -11.4375 2.304688 -11.359375 1.890625 -11.203125 Z M 3.5 -4.34375 L 7.40625 -4.34375 L 6.1875 -7.953125 C 5.945312 -8.640625 5.726562 -9.179688 5.53125 -9.578125 Z M 3.5 -4.34375 "/></g></g><g style="fill:#ffffff;fill-opacity:1;"><g transform="translate(74.977245, 20.243547)"><path style="stroke:none" d="M 4.984375 -0.15625 L 5.1875 -0.15625 L 5.1875 0 L 1.796875 0 L 1.796875 -0.15625 L 2 -0.15625 C 2.257812 -0.15625 2.488281 -0.25 2.6875 -0.4375 C 2.882812 -0.632812 2.984375 -0.863281 2.984375 -1.125 L 2.984375 -10.40625 L 1.328125 -10.3125 C 0.285156 -10.25 -0.234375 -9.875 -0.234375 -9.1875 C -0.234375 -8.90625 -0.144531 -8.664062 0.03125 -8.46875 C 0.21875 -8.28125 0.503906 -8.175781 0.890625 -8.15625 L 0.890625 -8.0625 C 0.753906 -8.03125 0.613281 -8.015625 0.46875 -8.015625 C 0.0078125 -8.015625 -0.332031 -8.191406 -0.5625 -8.546875 C -0.695312 -8.753906 -0.765625 -8.984375 -0.765625 -9.234375 C -0.765625 -10.109375 -0.0976562 -10.617188 1.234375 -10.765625 C 1.242188 -10.765625 1.753906 -10.796875 2.765625 -10.859375 C 3.785156 -10.929688 4.59375 -11.023438 5.1875 -11.140625 L 5.21875 -10.984375 C 4.769531 -10.910156 4.453125 -10.757812 4.265625 -10.53125 C 4.078125 -10.300781 3.984375 -9.988281 3.984375 -9.59375 L 3.984375 -1.125 C 3.992188 -0.863281 4.09375 -0.632812 4.28125 -0.4375 C 4.476562 -0.25 4.710938 -0.15625 4.984375 -0.15625 Z M 4.984375 -0.15625 "/></g></g><g style="fill:#ffffff;fill-opacity:1;"><g transform="translate(80.746711, 20.243547)"><path style="stroke:none" d="M 16.3125 2.34375 C 15.488281 2.601562 14.75 2.648438 14.09375 2.484375 C 13.40625 2.304688 12.804688 2.019531 12.296875 1.625 C 11.816406 1.226562 11.320312 0.757812 10.8125 0.21875 L 2.65625 -8.8125 L 2.65625 -1.078125 C 2.664062 -0.722656 2.828125 -0.457031 3.140625 -0.28125 C 3.285156 -0.195312 3.441406 -0.15625 3.609375 -0.15625 L 3.890625 -0.15625 L 3.890625 0 L 0.71875 0 L 0.71875 -0.15625 L 1 -0.15625 C 1.257812 -0.15625 1.484375 -0.242188 1.671875 -0.421875 C 1.859375 -0.609375 1.953125 -0.832031 1.953125 -1.09375 L 1.953125 -9.59375 C 1.898438 -9.664062 1.796875 -9.800781 1.640625 -10 C 1.484375 -10.195312 1.351562 -10.359375 1.25 -10.484375 C 1.144531 -10.609375 1.003906 -10.769531 0.828125 -10.96875 C 0.660156 -11.175781 0.5 -11.335938 0.34375 -11.453125 C 0.195312 -11.578125 0.0234375 -11.722656 -0.171875 -11.890625 C -0.484375 -12.128906 -0.8125 -12.300781 -1.15625 -12.40625 C -1.507812 -12.507812 -1.804688 -12.5625 -2.046875 -12.5625 C -2.285156 -12.5625 -2.546875 -12.519531 -2.828125 -12.4375 L -2.890625 -12.59375 C -2.398438 -12.800781 -1.921875 -12.90625 -1.453125 -12.90625 C -0.992188 -12.90625 -0.597656 -12.847656 -0.265625 -12.734375 C 0.0546875 -12.628906 0.40625 -12.4375 0.78125 -12.15625 C 1.164062 -11.875 1.476562 -11.613281 1.71875 -11.375 C 1.96875 -11.144531 2.257812 -10.835938 2.59375 -10.453125 L 10.390625 -1.796875 L 10.390625 -9.734375 C 10.378906 -9.992188 10.28125 -10.210938 10.09375 -10.390625 C 9.914062 -10.578125 9.695312 -10.671875 9.4375 -10.671875 L 9.140625 -10.671875 L 9.140625 -10.828125 L 12.328125 -10.828125 L 12.328125 -10.671875 L 12.046875 -10.671875 C 11.785156 -10.671875 11.5625 -10.578125 11.375 -10.390625 C 11.195312 -10.210938 11.101562 -10 11.09375 -9.75 L 11.09375 -1 C 11.195312 -0.882812 11.34375 -0.710938 11.53125 -0.484375 C 11.71875 -0.265625 11.847656 -0.109375 11.921875 -0.015625 C 12.003906 0.078125 12.125 0.210938 12.28125 0.390625 C 12.4375 0.566406 12.566406 0.703125 12.671875 0.796875 C 12.785156 0.890625 12.921875 1.007812 13.078125 1.15625 C 13.234375 1.3125 13.378906 1.429688 13.515625 1.515625 C 13.660156 1.609375 13.820312 1.710938 14 1.828125 C 14.25 1.972656 14.53125 2.082031 14.84375 2.15625 C 15.15625 2.226562 15.410156 2.265625 15.609375 2.265625 C 15.816406 2.265625 16.035156 2.242188 16.265625 2.203125 Z M 16.3125 2.34375 "/></g></g><g style="fill:#ffffff;fill-opacity:1;"><g transform="translate(94.52857, 20.243547)"><path style="stroke:none" d="M -0.890625 -7.75 C -1.210938 -8.132812 -1.375 -8.515625 -1.375 -8.890625 C -1.375 -9.265625 -1.285156 -9.585938 -1.109375 -9.859375 C -0.929688 -10.128906 -0.644531 -10.359375 -0.25 -10.546875 C 0.132812 -10.742188 0.570312 -10.84375 1.0625 -10.84375 L 7.40625 -10.84375 C 7.726562 -10.84375 8.082031 -10.875 8.46875 -10.9375 C 8.851562 -11 9.125 -11.0625 9.28125 -11.125 L 9.28125 -9.171875 L 9.125 -9.1875 L 9.125 -9.453125 C 9.125 -9.703125 9.035156 -9.914062 8.859375 -10.09375 C 8.679688 -10.269531 8.476562 -10.363281 8.25 -10.375 L 5.3125 -10.375 L 5.3125 -1.109375 C 5.320312 -0.742188 5.484375 -0.46875 5.796875 -0.28125 C 5.953125 -0.195312 6.117188 -0.15625 6.296875 -0.15625 L 6.5 -0.15625 L 6.5 0 L 3.109375 0 L 3.109375 -0.15625 L 3.3125 -0.15625 C 3.582031 -0.15625 3.8125 -0.25 4 -0.4375 C 4.1875 -0.625 4.285156 -0.84375 4.296875 -1.09375 L 4.296875 -10.375 L 1.0625 -10.375 C 0.238281 -10.375 -0.359375 -10.113281 -0.734375 -9.59375 C -0.921875 -9.320312 -1.015625 -9.039062 -1.015625 -8.75 C -1.015625 -8.457031 -0.929688 -8.148438 -0.765625 -7.828125 Z M -0.890625 -7.75 "/></g></g><g style="fill:#ffffff;fill-opacity:1;"><g transform="translate(104.087664, 20.243547)"><path style="stroke:none" d="M 1.125 -0.15625 C 1.394531 -0.15625 1.625 -0.25 1.8125 -0.4375 C 2.007812 -0.632812 2.113281 -0.863281 2.125 -1.125 L 2.125 -9.796875 C 2.125 -10.035156 2.023438 -10.238281 1.828125 -10.40625 C 1.628906 -10.582031 1.394531 -10.671875 1.125 -10.671875 L 0.9375 -10.671875 L 0.921875 -10.828125 L 4.0625 -10.828125 C 4.382812 -10.828125 4.734375 -10.859375 5.109375 -10.921875 C 5.484375 -10.984375 5.75 -11.046875 5.90625 -11.109375 L 5.90625 -9.15625 L 5.75 -9.15625 L 5.75 -9.4375 C 5.75 -9.6875 5.664062 -9.894531 5.5 -10.0625 C 5.332031 -10.238281 5.128906 -10.332031 4.890625 -10.34375 L 3.125 -10.34375 L 3.125 -5.5625 L 6.0625 -5.5625 C 6.269531 -5.570312 6.445312 -5.648438 6.59375 -5.796875 C 6.738281 -5.941406 6.8125 -6.125 6.8125 -6.34375 L 6.8125 -6.5625 L 6.96875 -6.5625 L 6.96875 -4.109375 L 6.8125 -4.109375 L 6.8125 -4.34375 C 6.8125 -4.550781 6.738281 -4.726562 6.59375 -4.875 C 6.457031 -5.019531 6.285156 -5.097656 6.078125 -5.109375 L 3.125 -5.109375 L 3.125 -0.484375 L 6.421875 -0.484375 C 7.179688 -0.484375 7.757812 -0.648438 8.15625 -0.984375 C 8.5625 -1.328125 8.898438 -1.832031 9.171875 -2.5 L 9.328125 -2.5 L 8.4375 0 L 0.921875 0 L 0.921875 -0.15625 Z M 1.125 -0.15625 "/></g></g><g style="fill:#ffffff;fill-opacity:1;"><g transform="translate(113.321913, 20.243547)"><path style="stroke:none" d="M 14.671875 2.625 C 14.234375 2.738281 13.847656 2.796875 13.515625 2.796875 C 13.179688 2.796875 12.882812 2.773438 12.625 2.734375 C 12.363281 2.691406 12.085938 2.613281 11.796875 2.5 C 11.503906 2.382812 11.226562 2.25 10.96875 2.09375 C 10.707031 1.9375 10.445312 1.742188 10.1875 1.515625 C 9.71875 1.128906 9.289062 0.710938 8.90625 0.265625 C 8.519531 -0.171875 7.773438 -1 6.671875 -2.21875 C 5.566406 -3.4375 4.832031 -4.25 4.46875 -4.65625 C 4.101562 -5.0625 3.828125 -5.273438 3.640625 -5.296875 L 3.640625 -5.4375 C 4.234375 -5.4375 4.628906 -5.445312 4.828125 -5.46875 C 5.035156 -5.5 5.25 -5.546875 5.46875 -5.609375 C 5.695312 -5.679688 5.890625 -5.773438 6.046875 -5.890625 C 6.660156 -6.285156 6.96875 -6.9375 6.96875 -7.84375 C 6.96875 -8.59375 6.796875 -9.191406 6.453125 -9.640625 C 6.117188 -10.097656 5.648438 -10.332031 5.046875 -10.34375 L 3.125 -10.34375 L 3.125 -1.125 C 3.125 -0.875 3.21875 -0.648438 3.40625 -0.453125 C 3.601562 -0.253906 3.835938 -0.15625 4.109375 -0.15625 L 4.296875 -0.15625 L 4.3125 0 L 0.921875 0 L 0.921875 -0.15625 L 1.125 -0.15625 C 1.382812 -0.15625 1.613281 -0.25 1.8125 -0.4375 C 2.007812 -0.625 2.113281 -0.847656 2.125 -1.109375 L 2.125 -9.703125 C 2.113281 -9.960938 2.007812 -10.1875 1.8125 -10.375 C 1.625 -10.570312 1.394531 -10.671875 1.125 -10.671875 L 0.921875 -10.671875 L 0.921875 -10.828125 L 5.109375 -10.828125 C 6.015625 -10.828125 6.742188 -10.570312 7.296875 -10.0625 C 7.847656 -9.550781 8.125 -8.875 8.125 -8.03125 C 8.125 -7.195312 7.867188 -6.476562 7.359375 -5.875 C 6.859375 -5.269531 6.238281 -4.96875 5.5 -4.96875 C 5.5 -4.96875 5.492188 -4.96875 5.484375 -4.96875 C 5.835938 -4.59375 6.238281 -4.160156 6.6875 -3.671875 C 8.46875 -1.703125 9.609375 -0.46875 10.109375 0.03125 C 10.617188 0.539062 11.066406 0.957031 11.453125 1.28125 C 11.835938 1.613281 12.179688 1.859375 12.484375 2.015625 C 13.085938 2.335938 13.691406 2.5 14.296875 2.5 C 14.421875 2.5 14.546875 2.488281 14.671875 2.46875 Z M 14.671875 2.625 "/></g></g><g style="fill:#ffffff;fill-opacity:1;"><g transform="translate(123.406907, 20.243547)"><path style="stroke:none" d="M 0.703125 -9.375 C 0.984375 -9.46875 1.175781 -9.601562 1.28125 -9.78125 C 1.382812 -9.957031 1.4375 -10.085938 1.4375 -10.171875 C 1.4375 -10.429688 1.328125 -10.6875 1.109375 -10.9375 C 0.941406 -11.125 0.847656 -11.253906 0.828125 -11.328125 C 0.796875 -11.484375 0.8125 -11.625 0.875 -11.75 C 0.96875 -11.957031 1.144531 -12.0625 1.40625 -12.0625 C 1.726562 -12.0625 1.945312 -11.914062 2.0625 -11.625 C 2.1875 -11.332031 2.25 -11.050781 2.25 -10.78125 C 2.25 -10.507812 2.164062 -10.242188 2 -9.984375 C 1.6875 -9.503906 1.265625 -9.257812 0.734375 -9.25 Z M 0.703125 -9.375 "/></g></g><g style="fill:#ffffff;fill-opacity:1;"><g transform="translate(126.33032, 20.243547)"><path style="stroke:none" d="M 1.84375 -4.109375 C 1.300781 -3.410156 1.03125 -2.65625 1.03125 -1.84375 C 1.03125 -0.875 1.441406 -0.117188 2.265625 0.421875 C 2.734375 0.734375 3.269531 0.890625 3.875 0.890625 C 4.476562 0.890625 5 0.773438 5.4375 0.546875 C 6.28125 0.109375 6.753906 -0.617188 6.859375 -1.640625 C 6.867188 -1.710938 6.875 -1.785156 6.875 -1.859375 C 6.875 -2.234375 6.765625 -2.644531 6.546875 -3.09375 C 6.335938 -3.539062 5.992188 -3.945312 5.515625 -4.3125 L 2.734375 -6.515625 C 2.128906 -6.984375 1.828125 -7.59375 1.828125 -8.34375 C 1.828125 -9.101562 2.066406 -9.742188 2.546875 -10.265625 C 3.035156 -10.785156 3.691406 -11.046875 4.515625 -11.046875 C 4.929688 -11.046875 5.378906 -10.992188 5.859375 -10.890625 L 6.484375 -10.890625 L 6.515625 -8.984375 L 6.359375 -8.984375 C 6.347656 -9.484375 6.171875 -9.875 5.828125 -10.15625 C 5.484375 -10.4375 5.050781 -10.578125 4.53125 -10.578125 C 4.007812 -10.578125 3.570312 -10.40625 3.21875 -10.0625 C 2.863281 -9.71875 2.6875 -9.273438 2.6875 -8.734375 C 2.6875 -8.191406 2.914062 -7.738281 3.375 -7.375 L 6.234375 -5.125 C 7.367188 -4.226562 7.9375 -3.144531 7.9375 -1.875 C 7.9375 -0.925781 7.5625 -0.109375 6.8125 0.578125 C 6.15625 1.160156 5.285156 1.453125 4.203125 1.453125 C 3.546875 1.453125 2.957031 1.328125 2.4375 1.078125 C 1.46875 0.628906 0.890625 -0.140625 0.703125 -1.234375 C 0.671875 -1.398438 0.65625 -1.609375 0.65625 -1.859375 C 0.65625 -2.117188 0.722656 -2.46875 0.859375 -2.90625 C 1.003906 -3.34375 1.285156 -3.78125 1.703125 -4.21875 Z M 1.84375 -4.109375 "/></g></g><g style="fill:#ffffff;fill-opacity:1;"><g transform="translate(134.822134, 20.243547)"><path style="stroke:none" d=""/></g></g><g style="fill:#ffffff;fill-opacity:1;"><g transform="translate(138.689085, 20.243547)"><path style="stroke:none" d="M -0.890625 -7.75 C -1.210938 -8.132812 -1.375 -8.515625 -1.375 -8.890625 C -1.375 -9.265625 -1.285156 -9.585938 -1.109375 -9.859375 C -0.929688 -10.128906 -0.644531 -10.359375 -0.25 -10.546875 C 0.132812 -10.742188 0.570312 -10.84375 1.0625 -10.84375 L 7.40625 -10.84375 C 7.726562 -10.84375 8.082031 -10.875 8.46875 -10.9375 C 8.851562 -11 9.125 -11.0625 9.28125 -11.125 L 9.28125 -9.171875 L 9.125 -9.1875 L 9.125 -9.453125 C 9.125 -9.703125 9.035156 -9.914062 8.859375 -10.09375 C 8.679688 -10.269531 8.476562 -10.363281 8.25 -10.375 L 5.3125 -10.375 L 5.3125 -1.109375 C 5.320312 -0.742188 5.484375 -0.46875 5.796875 -0.28125 C 5.953125 -0.195312 6.117188 -0.15625 6.296875 -0.15625 L 6.5 -0.15625 L 6.5 0 L 3.109375 0 L 3.109375 -0.15625 L 3.3125 -0.15625 C 3.582031 -0.15625 3.8125 -0.25 4 -0.4375 C 4.1875 -0.625 4.285156 -0.84375 4.296875 -1.09375 L 4.296875 -10.375 L 1.0625 -10.375 C 0.238281 -10.375 -0.359375 -10.113281 -0.734375 -9.59375 C -0.921875 -9.320312 -1.015625 -9.039062 -1.015625 -8.75 C -1.015625 -8.457031 -0.929688 -8.148438 -0.765625 -7.828125 Z M -0.890625 -7.75 "/></g></g><g style="fill:#ffffff;fill-opacity:1;"><g transform="translate(148.248179, 20.243547)"><path style="stroke:none" d="M 1.125 -0.15625 C 1.394531 -0.15625 1.625 -0.25 1.8125 -0.4375 C 2.007812 -0.632812 2.113281 -0.863281 2.125 -1.125 L 2.125 -9.796875 C 2.125 -10.035156 2.023438 -10.238281 1.828125 -10.40625 C 1.628906 -10.582031 1.394531 -10.671875 1.125 -10.671875 L 0.9375 -10.671875 L 0.921875 -10.828125 L 4.0625 -10.828125 C 4.382812 -10.828125 4.734375 -10.859375 5.109375 -10.921875 C 5.484375 -10.984375 5.75 -11.046875 5.90625 -11.109375 L 5.90625 -9.15625 L 5.75 -9.15625 L 5.75 -9.4375 C 5.75 -9.6875 5.664062 -9.894531 5.5 -10.0625 C 5.332031 -10.238281 5.128906 -10.332031 4.890625 -10.34375 L 3.125 -10.34375 L 3.125 -5.5625 L 6.0625 -5.5625 C 6.269531 -5.570312 6.445312 -5.648438 6.59375 -5.796875 C 6.738281 -5.941406 6.8125 -6.125 6.8125 -6.34375 L 6.8125 -6.5625 L 6.96875 -6.5625 L 6.96875 -4.109375 L 6.8125 -4.109375 L 6.8125 -4.34375 C 6.8125 -4.550781 6.738281 -4.726562 6.59375 -4.875 C 6.457031 -5.019531 6.285156 -5.097656 6.078125 -5.109375 L 3.125 -5.109375 L 3.125 -0.484375 L 6.421875 -0.484375 C 7.179688 -0.484375 7.757812 -0.648438 8.15625 -0.984375 C 8.5625 -1.328125 8.898438 -1.832031 9.171875 -2.5 L 9.328125 -2.5 L 8.4375 0 L 0.921875 0 L 0.921875 -0.15625 Z M 1.125 -0.15625 "/></g></g><g style="fill:#ffffff;fill-opacity:1;"><g transform="translate(157.63712, 20.243547)"><path style="stroke:none" d="M 17.015625 2.5 C 17.078125 2.5 17.140625 2.5 17.203125 2.5 L 17.203125 2.65625 C 16.910156 2.695312 16.585938 2.71875 16.234375 2.71875 C 15.878906 2.71875 15.441406 2.640625 14.921875 2.484375 C 14.398438 2.335938 13.925781 2.050781 13.5 1.625 C 12.632812 0.757812 12.109375 -0.363281 11.921875 -1.75 L 10.984375 -8.625 L 7.765625 -1.359375 C 7.472656 -0.734375 7.296875 -0.207031 7.234375 0.21875 L 7.078125 0.21875 L 3.078125 -8.5 L 2.390625 -0.796875 C 2.367188 -0.628906 2.421875 -0.476562 2.546875 -0.34375 C 2.679688 -0.207031 2.828125 -0.140625 2.984375 -0.140625 L 3.234375 -0.140625 L 3.234375 0 L 0.234375 0 L 0.234375 -0.15625 L 0.484375 -0.15625 C 0.753906 -0.15625 0.992188 -0.238281 1.203125 -0.40625 C 1.421875 -0.582031 1.554688 -0.804688 1.609375 -1.078125 L 2.578125 -9.53125 C 1.671875 -11.3125 0.582031 -12.203125 -0.6875 -12.203125 C -0.789062 -12.203125 -0.90625 -12.195312 -1.03125 -12.1875 L -1.03125 -12.34375 C -0.757812 -12.414062 -0.535156 -12.453125 -0.359375 -12.453125 C -0.179688 -12.453125 0.0078125 -12.441406 0.21875 -12.421875 C 0.425781 -12.410156 0.664062 -12.363281 0.9375 -12.28125 C 1.21875 -12.195312 1.484375 -12.070312 1.734375 -11.90625 C 1.984375 -11.75 2.195312 -11.585938 2.375 -11.421875 C 2.5625 -11.253906 2.738281 -11.066406 2.90625 -10.859375 C 3.1875 -10.484375 3.410156 -10.128906 3.578125 -9.796875 L 7.296875 -1.71875 L 11.46875 -11.046875 L 11.609375 -11.046875 L 13.046875 -1.890625 C 13.253906 -0.441406 13.71875 0.648438 14.4375 1.390625 C 15.15625 2.128906 16.015625 2.5 17.015625 2.5 Z M 17.015625 2.5 "/></g></g><g style="fill:#ffffff;fill-opacity:1;"><g transform="translate(172.037623, 20.243547)"><path style="stroke:none" d="M 5.4375 -11.078125 C 6.34375 -11.078125 7.09375 -10.859375 7.6875 -10.421875 C 8.488281 -9.847656 8.890625 -8.945312 8.890625 -7.71875 C 8.890625 -6.832031 8.644531 -6.070312 8.15625 -5.4375 C 7.613281 -4.769531 6.863281 -4.4375 5.90625 -4.4375 C 5.40625 -4.4375 4.945312 -4.554688 4.53125 -4.796875 C 4.113281 -5.046875 3.875 -5.460938 3.8125 -6.046875 L 3.9375 -6.09375 C 4.050781 -5.644531 4.316406 -5.335938 4.734375 -5.171875 C 5.015625 -5.046875 5.257812 -4.984375 5.46875 -4.984375 C 6.320312 -4.984375 6.9375 -5.3125 7.3125 -5.96875 C 7.59375 -6.457031 7.734375 -7.035156 7.734375 -7.703125 C 7.734375 -8.773438 7.4375 -9.550781 6.84375 -10.03125 C 6.382812 -10.394531 5.804688 -10.578125 5.109375 -10.578125 C 4.941406 -10.578125 4.796875 -10.566406 4.671875 -10.546875 C 4.554688 -10.535156 4.039062 -10.453125 3.125 -10.296875 L 3.125 -1.125 C 3.132812 -0.851562 3.238281 -0.625 3.4375 -0.4375 C 3.632812 -0.25 3.859375 -0.15625 4.109375 -0.15625 L 4.3125 -0.15625 L 4.3125 0 L 0.921875 0 L 0.921875 -0.15625 L 1.125 -0.15625 C 1.382812 -0.15625 1.613281 -0.25 1.8125 -0.4375 C 2.007812 -0.625 2.113281 -0.851562 2.125 -1.125 L 2.125 -9.5 C 2.125 -9.769531 2.046875 -9.976562 1.890625 -10.125 C 1.734375 -10.269531 1.53125 -10.34375 1.28125 -10.34375 C 1.226562 -10.34375 1.175781 -10.335938 1.125 -10.328125 L 0.9375 -10.3125 L 0.90625 -10.46875 C 1.445312 -10.519531 2.164062 -10.617188 3.0625 -10.765625 C 3.96875 -10.921875 4.53125 -11.007812 4.75 -11.03125 C 4.96875 -11.0625 5.195312 -11.078125 5.4375 -11.078125 Z M 5.4375 -11.078125 "/></g></g><path style=" stroke:none;fill-rule:nonzero;fill:#f0b551;fill-opacity:1;" d="M 30.949219 10.628906 L 28.066406 7.742188 C 27.640625 7.320312 27.058594 7.082031 26.453125 7.082031 C 25.84375 7.082031 25.261719 7.320312 24.835938 7.742188 L 23.671875 8.933594 L 33.542969 18.804688 C 33.59375 18.855469 33.59375 18.9375 33.542969 18.988281 C 33.515625 18.988281 33.464844 19.015625 33.4375 19.015625 C 33.410156 19.015625 33.355469 19.015625 33.355469 18.988281 L 23.117188 8.75 L 21.160156 10.707031 L 23.355469 12.902344 L 24.492188 14.042969 L 26.636719 16.183594 L 27.722656 17.269531 L 28.804688 18.355469 L 29.917969 19.464844 L 34.335938 23.882812 L 36.292969 21.925781 L 36.03125 21.660156 C 36.003906 21.632812 36.003906 21.609375 36.003906 21.582031 C 36.003906 21.554688 36.03125 21.503906 36.03125 21.503906 L 37.300781 20.230469 C 37.722656 19.808594 37.960938 19.226562 37.960938 18.617188 C 37.960938 18.007812 37.722656 17.425781 37.300781 17.003906 L 34.441406 14.121094 Z M 30.949219 10.628906 "/><path style=" stroke:none;fill-rule:nonzero;fill:#73badd;fill-opacity:1;" d="M 25.261719 15.097656 L 24.46875 14.253906 L 24.414062 14.332031 L 17.03125 21.714844 C 17.007812 21.742188 16.980469 21.742188 16.953125 21.742188 C 16.925781 21.742188 16.898438 21.742188 16.875 21.714844 C 16.820312 21.660156 16.820312 21.582031 16.875 21.527344 L 24.335938 14.066406 L 23.382812 13.113281 L 23.277344 13.195312 L 15.367188 21.105469 L 16.316406 24.175781 L 25.234375 15.207031 Z M 25.261719 15.097656 "/><path style=" stroke:none;fill-rule:nonzero;fill:#acd9ea;fill-opacity:1;" d="M 27.5625 17.296875 L 26.664062 16.394531 L 26.585938 16.5 L 19.203125 23.882812 C 19.175781 23.910156 19.148438 23.910156 19.121094 23.910156 C 19.097656 23.910156 19.070312 23.910156 19.042969 23.882812 C 18.992188 23.832031 18.992188 23.75 19.042969 23.699219 L 26.425781 16.316406 L 26.371094 16.238281 L 25.261719 15.285156 L 25.3125 15.363281 L 16.425781 24.359375 L 19.519531 25.3125 L 27.457031 17.402344 Z M 27.5625 17.296875 "/><path style=" stroke:none;fill-rule:nonzero;fill:#acd9ea;fill-opacity:1;" d="M 23.171875 12.929688 L 22.351562 12.109375 L 22.269531 12.1875 L 14.890625 19.570312 C 14.863281 19.597656 14.835938 19.597656 14.808594 19.597656 C 14.785156 19.597656 14.757812 19.597656 14.730469 19.570312 C 14.679688 19.519531 14.679688 19.4375 14.730469 19.386719 L 22.085938 12.003906 L 22.164062 11.925781 L 21.425781 11.183594 L 21.34375 11.261719 L 12.375 20.230469 L 15.179688 20.945312 L 23.089844 13.035156 Z M 23.171875 12.929688 "/><path style=" stroke:none;fill-rule:nonzero;fill:#acd9ea;fill-opacity:1;" d="M 31.929688 21.6875 L 30.976562 20.734375 L 23.515625 28.195312 C 23.488281 28.222656 23.460938 28.222656 23.4375 28.222656 C 23.410156 28.222656 23.355469 28.222656 23.355469 28.195312 C 23.304688 28.144531 23.304688 28.0625 23.355469 28.011719 L 30.816406 20.550781 L 29.972656 19.703125 L 29.890625 19.78125 L 20.921875 28.75 L 23.992188 29.703125 L 31.902344 21.792969 Z M 31.929688 21.6875 "/><path style=" stroke:none;fill-rule:nonzero;fill:#73badd;fill-opacity:1;" d="M 29.757812 19.492188 L 28.832031 18.566406 L 28.753906 18.644531 L 21.34375 26.027344 C 21.320312 26.054688 21.292969 26.054688 21.265625 26.054688 C 21.238281 26.054688 21.214844 26.054688 21.1875 26.027344 C 21.132812 25.972656 21.132812 25.894531 21.1875 25.839844 L 28.570312 18.460938 L 28.648438 18.378906 L 27.75 17.480469 L 27.640625 17.585938 L 19.730469 25.496094 L 20.683594 28.566406 Z M 29.757812 19.492188 "/><path style=" stroke:none;fill-rule:nonzero;fill:#73badd;fill-opacity:1;" d="M 33.121094 22.71875 L 33.039062 22.878906 L 25.65625 30.285156 C 25.632812 30.3125 25.605469 30.339844 25.578125 30.339844 C 25.550781 30.339844 25.5 30.339844 25.5 30.3125 C 25.445312 30.261719 25.445312 30.179688 25.5 30.128906 L 32.960938 22.667969 L 32.140625 21.847656 L 32.0625 21.925781 L 24.097656 29.863281 L 24.835938 32.695312 L 33.808594 23.671875 L 33.886719 23.511719 Z M 33.121094 22.71875 "/><path style=" stroke:none;fill-rule:nonzero;fill:#cccccc;fill-opacity:1;" d="M 21.34375 11.183594 L 22.085938 11.925781 Z M 21.34375 11.183594 "/><path style=" stroke:none;fill-rule:nonzero;fill:#ef934a;fill-opacity:1;" d="M 43.96875 1.183594 L 43.886719 1.128906 C 43.464844 0.707031 42.882812 0.496094 42.273438 0.496094 C 41.664062 0.496094 41.058594 0.707031 40.632812 1.128906 L 31.082031 10.628906 L 34.523438 13.933594 L 43.992188 4.410156 C 44.417969 3.988281 44.628906 3.40625 44.628906 2.796875 C 44.65625 2.1875 44.390625 1.605469 43.96875 1.183594 Z M 43.171875 3.933594 C 42.910156 4.199219 42.539062 4.355469 42.167969 4.355469 C 41.796875 4.355469 41.425781 4.199219 41.164062 3.933594 C 40.898438 3.667969 40.738281 3.300781 40.738281 2.929688 C 40.738281 2.558594 40.898438 2.1875 41.164062 1.921875 C 41.425781 1.660156 41.796875 1.5 42.167969 1.5 C 42.539062 1.5 42.910156 1.660156 43.171875 1.921875 C 43.730469 2.480469 43.730469 3.378906 43.171875 3.933594 Z M 43.171875 3.933594 "/><path style=" stroke:none;fill-rule:nonzero;fill:#f0b551;fill-opacity:1;" d="M 42.167969 4.09375 C 42.484375 4.09375 42.777344 3.960938 42.988281 3.75 C 43.4375 3.300781 43.4375 2.558594 42.988281 2.109375 C 42.777344 1.898438 42.484375 1.765625 42.167969 1.765625 C 41.851562 1.765625 41.558594 1.898438 41.347656 2.109375 C 41.136719 2.320312 41.003906 2.609375 41.003906 2.929688 C 41.003906 3.246094 41.136719 3.539062 41.347656 3.75 C 41.558594 3.960938 41.851562 4.09375 42.167969 4.09375 Z M 42.167969 4.09375 "/><path style=" stroke:none;fill-rule:nonzero;fill:#000000;fill-opacity:1;" d="M 34.363281 24.359375 C 34.285156 24.359375 34.230469 24.332031 34.175781 24.28125 L 20.816406 10.917969 C 20.761719 10.867188 20.738281 10.8125 20.738281 10.734375 C 20.738281 10.65625 20.761719 10.601562 20.816406 10.546875 L 22.960938 8.40625 C 23.066406 8.300781 23.222656 8.300781 23.328125 8.40625 L 23.488281 8.5625 L 24.574219 7.480469 C 25.605469 6.449219 27.324219 6.449219 28.355469 7.480469 L 37.589844 16.714844 C 38.621094 17.746094 38.648438 19.464844 37.617188 20.523438 L 36.53125 21.609375 L 36.691406 21.765625 C 36.796875 21.871094 36.796875 22.03125 36.691406 22.136719 L 34.546875 24.28125 C 34.496094 24.332031 34.441406 24.359375 34.363281 24.359375 Z M 21.371094 10.734375 L 34.363281 23.726562 L 36.136719 21.953125 L 35.976562 21.792969 C 35.871094 21.6875 35.871094 21.527344 35.976562 21.421875 L 37.246094 20.152344 C 38.066406 19.304688 38.066406 17.929688 37.21875 17.082031 L 27.988281 7.851562 C 27.167969 7.03125 25.765625 7.03125 24.945312 7.851562 L 23.671875 9.121094 C 23.566406 9.226562 23.410156 9.226562 23.304688 9.121094 L 23.144531 8.960938 Z M 21.371094 10.734375 "/><g clip-rule="nonzero" clip-path="url(#84dd749c84)"><path style=" stroke:none;fill-rule:nonzero;fill:#000000;fill-opacity:1;" d="M 24.785156 33.222656 C 24.757812 33.222656 24.730469 33.222656 24.707031 33.222656 C 24.625 33.195312 24.546875 33.117188 24.519531 33.039062 L 23.726562 30.046875 L 20.523438 29.070312 C 20.445312 29.042969 20.367188 28.988281 20.339844 28.882812 L 19.359375 25.65625 L 16.132812 24.675781 C 16.054688 24.652344 15.972656 24.597656 15.949219 24.492188 L 14.96875 21.289062 L 12.003906 20.523438 C 11.925781 20.496094 11.847656 20.417969 11.820312 20.339844 C 11.792969 20.257812 11.820312 20.152344 11.898438 20.074219 L 21.132812 10.867188 C 21.238281 10.761719 21.398438 10.761719 21.503906 10.867188 C 21.609375 10.972656 21.609375 11.128906 21.503906 11.238281 L 12.585938 20.125 L 15.234375 20.8125 C 15.3125 20.839844 15.390625 20.894531 15.417969 21 L 16.398438 24.199219 L 19.625 25.179688 C 19.703125 25.207031 19.785156 25.257812 19.8125 25.363281 L 20.789062 28.59375 L 23.992188 29.570312 C 24.070312 29.597656 24.148438 29.679688 24.175781 29.757812 L 24.890625 32.429688 L 33.78125 23.511719 C 33.886719 23.40625 34.046875 23.40625 34.152344 23.511719 C 34.257812 23.617188 34.257812 23.777344 34.152344 23.882812 L 24.945312 33.117188 C 24.917969 33.195312 24.863281 33.222656 24.785156 33.222656 Z M 24.785156 33.222656 "/></g><g clip-rule="nonzero" clip-path="url(#9ab92bc57d)"><path style=" stroke:none;fill-rule:nonzero;fill:#000000;fill-opacity:1;" d="M 34.546875 14.304688 C 34.46875 14.304688 34.414062 14.277344 34.363281 14.226562 C 34.257812 14.121094 34.257812 13.960938 34.363281 13.855469 L 43.886719 4.332031 C 44.707031 3.511719 44.707031 2.109375 43.886719 1.289062 L 43.808594 1.207031 C 43.410156 0.785156 42.882812 0.574219 42.300781 0.574219 C 41.71875 0.574219 41.1875 0.8125 40.792969 1.207031 L 31.265625 10.734375 C 31.160156 10.839844 31.003906 10.839844 30.898438 10.734375 C 30.789062 10.628906 30.789062 10.46875 30.898438 10.363281 L 40.421875 0.839844 C 40.925781 0.335938 41.585938 0.0429688 42.328125 0.0429688 C 43.042969 0.0429688 43.730469 0.335938 44.230469 0.839844 L 44.3125 0.917969 C 44.8125 1.421875 45.078125 2.082031 45.078125 2.824219 C 45.078125 3.5625 44.8125 4.226562 44.3125 4.726562 L 34.785156 14.253906 C 34.679688 14.277344 34.628906 14.304688 34.546875 14.304688 Z M 34.546875 14.304688 "/></g><path style=" stroke:none;fill-rule:nonzero;fill:#000000;fill-opacity:1;" d="M 42.167969 4.488281 C 41.292969 4.488281 40.605469 3.800781 40.605469 2.929688 C 40.605469 2.054688 41.292969 1.367188 42.167969 1.367188 C 43.042969 1.367188 43.730469 2.054688 43.730469 2.929688 C 43.730469 3.800781 43.042969 4.488281 42.167969 4.488281 Z M 42.167969 1.898438 C 41.585938 1.898438 41.136719 2.347656 41.136719 2.929688 C 41.136719 3.511719 41.613281 3.960938 42.167969 3.960938 C 42.722656 3.960938 43.199219 3.511719 43.199219 2.929688 C 43.199219 2.347656 42.75 1.898438 42.167969 1.898438 Z M 42.167969 1.898438 "/><path style=" stroke:none;fill-rule:nonzero;fill:#000000;fill-opacity:1;" d="M 19.574219 25.710938 C 19.492188 25.710938 19.441406 25.683594 19.386719 25.628906 C 19.28125 25.523438 19.28125 25.363281 19.386719 25.257812 L 27.457031 17.214844 C 27.5625 17.109375 27.722656 17.109375 27.828125 17.214844 C 27.933594 17.320312 27.933594 17.480469 27.828125 17.585938 L 19.757812 25.628906 C 19.703125 25.683594 19.652344 25.710938 19.574219 25.710938 Z M 19.574219 25.710938 "/><path style=" stroke:none;fill-rule:nonzero;fill:#000000;fill-opacity:1;" d="M 16.238281 24.675781 C 16.160156 24.675781 16.105469 24.652344 16.054688 24.597656 C 15.949219 24.492188 15.949219 24.332031 16.054688 24.226562 L 25.289062 15.019531 C 25.394531 14.914062 25.550781 14.914062 25.65625 15.019531 C 25.765625 15.125 25.765625 15.285156 25.65625 15.390625 L 16.425781 24.597656 C 16.371094 24.652344 16.316406 24.675781 16.238281 24.675781 Z M 16.238281 24.675781 "/><path style=" stroke:none;fill-rule:nonzero;fill:#000000;fill-opacity:1;" d="M 15.207031 21.34375 C 15.128906 21.34375 15.074219 21.316406 15.023438 21.265625 C 14.917969 21.160156 14.917969 21 15.023438 20.894531 L 23.089844 12.824219 C 23.199219 12.71875 23.355469 12.71875 23.460938 12.824219 C 23.566406 12.929688 23.566406 13.089844 23.460938 13.195312 L 15.390625 21.265625 C 15.339844 21.316406 15.285156 21.34375 15.207031 21.34375 Z M 15.207031 21.34375 "/><path style=" stroke:none;fill-rule:nonzero;fill:#000000;fill-opacity:1;" d="M 14.808594 19.730469 C 14.730469 19.730469 14.679688 19.703125 14.625 19.648438 C 14.519531 19.542969 14.519531 19.386719 14.625 19.28125 L 22.085938 11.820312 C 22.191406 11.710938 22.351562 11.710938 22.457031 11.820312 C 22.5625 11.925781 22.5625 12.082031 22.457031 12.1875 L 14.996094 19.648438 C 14.941406 19.703125 14.890625 19.730469 14.808594 19.730469 Z M 14.808594 19.730469 "/><path style=" stroke:none;fill-rule:nonzero;fill:#000000;fill-opacity:1;" d="M 16.953125 21.898438 C 16.875 21.898438 16.820312 21.871094 16.769531 21.820312 C 16.664062 21.714844 16.664062 21.554688 16.769531 21.449219 L 24.230469 13.988281 C 24.335938 13.882812 24.492188 13.882812 24.601562 13.988281 C 24.707031 14.09375 24.707031 14.253906 24.601562 14.359375 L 17.136719 21.820312 C 17.085938 21.871094 17.03125 21.898438 16.953125 21.898438 Z M 16.953125 21.898438 "/><path style=" stroke:none;fill-rule:nonzero;fill:#000000;fill-opacity:1;" d="M 19.121094 24.042969 C 19.042969 24.042969 18.992188 24.015625 18.9375 23.960938 C 18.832031 23.855469 18.832031 23.699219 18.9375 23.59375 L 26.398438 16.132812 C 26.503906 16.023438 26.664062 16.023438 26.769531 16.132812 C 26.875 16.238281 26.875 16.394531 26.769531 16.5 L 19.308594 23.960938 C 19.253906 24.015625 19.203125 24.042969 19.121094 24.042969 Z M 19.121094 24.042969 "/><path style=" stroke:none;fill-rule:nonzero;fill:#000000;fill-opacity:1;" d="M 21.265625 26.183594 C 21.1875 26.183594 21.132812 26.160156 21.082031 26.105469 C 20.976562 26 20.976562 25.839844 21.082031 25.734375 L 28.542969 18.273438 C 28.648438 18.167969 28.804688 18.167969 28.914062 18.273438 C 29.019531 18.378906 29.019531 18.539062 28.914062 18.644531 L 21.453125 26.105469 C 21.398438 26.160156 21.34375 26.183594 21.265625 26.183594 Z M 21.265625 26.183594 "/><path style=" stroke:none;fill-rule:nonzero;fill:#000000;fill-opacity:1;" d="M 23.410156 28.355469 C 23.328125 28.355469 23.277344 28.328125 23.222656 28.277344 C 23.117188 28.167969 23.117188 28.011719 23.222656 27.90625 L 30.683594 20.445312 C 30.789062 20.339844 30.949219 20.339844 31.054688 20.445312 C 31.160156 20.550781 31.160156 20.707031 31.054688 20.8125 L 23.59375 28.277344 C 23.542969 28.328125 23.488281 28.355469 23.410156 28.355469 Z M 23.410156 28.355469 "/><path style=" stroke:none;fill-rule:nonzero;fill:#000000;fill-opacity:1;" d="M 25.578125 30.496094 C 25.5 30.496094 25.445312 30.472656 25.394531 30.417969 C 25.289062 30.3125 25.289062 30.152344 25.394531 30.046875 L 32.855469 22.585938 C 32.960938 22.480469 33.121094 22.480469 33.226562 22.585938 C 33.332031 22.691406 33.332031 22.851562 33.226562 22.957031 L 25.765625 30.417969 C 25.710938 30.472656 25.65625 30.496094 25.578125 30.496094 Z M 25.578125 30.496094 "/><path style=" stroke:none;fill-rule:nonzero;fill:#000000;fill-opacity:1;" d="M 20.632812 29.070312 C 20.550781 29.070312 20.5 29.042969 20.445312 28.988281 C 20.339844 28.882812 20.339844 28.726562 20.445312 28.621094 L 29.652344 19.386719 C 29.757812 19.28125 29.917969 19.28125 30.023438 19.386719 C 30.128906 19.492188 30.128906 19.648438 30.023438 19.757812 L 20.816406 28.988281 C 20.761719 29.042969 20.710938 29.070312 20.632812 29.070312 Z M 20.632812 29.070312 "/><path style=" stroke:none;fill-rule:nonzero;fill:#000000;fill-opacity:1;" d="M 23.964844 30.101562 C 23.886719 30.101562 23.832031 30.074219 23.78125 30.023438 C 23.671875 29.914062 23.671875 29.757812 23.78125 29.652344 L 31.847656 21.582031 C 31.957031 21.476562 32.113281 21.476562 32.21875 21.582031 C 32.324219 21.6875 32.324219 21.847656 32.21875 21.953125 L 24.148438 30.023438 C 24.097656 30.074219 24.042969 30.101562 23.964844 30.101562 Z M 23.964844 30.101562 "/><path style=" stroke:none;fill-rule:nonzero;fill:#000000;fill-opacity:1;" d="M 33.4375 19.148438 C 33.355469 19.148438 33.304688 19.121094 33.25 19.066406 L 23.304688 9.121094 C 23.199219 9.015625 23.199219 8.855469 23.304688 8.75 C 23.410156 8.644531 23.566406 8.644531 23.671875 8.75 L 33.621094 18.699219 C 33.726562 18.804688 33.726562 18.960938 33.621094 19.066406 C 33.570312 19.121094 33.515625 19.148438 33.4375 19.148438 Z M 33.4375 19.148438 "/></g></svg>