<svg xmlns="http://www.w3.org/2000/svg" xmlns:xlink="http://www.w3.org/1999/xlink" width="176" zoomAndPan="magnify" viewBox="0 0 132 34.499999" height="46" preserveAspectRatio="xMidYMid meet" version="1.2"><defs><clipPath id="00a0ec868f"><path d="M 0.941406 0 L 131.054688 0 L 131.054688 34.007812 L 0.941406 34.007812 Z M 0.941406 0 "/></clipPath><clipPath id="5f8c04452a"><path d="M 75 20 L 93 20 L 93 34.007812 L 75 34.007812 Z M 75 20 "/></clipPath><clipPath id="4b8f42fd10"><path d="M 17 21 L 28 21 L 28 32.859375 L 17 32.859375 Z M 17 21 "/></clipPath><clipPath id="31dfb4127f"><path d="M 24 1.070312 L 37.722656 1.070312 L 37.722656 15 L 24 15 Z M 24 1.070312 "/></clipPath><clipPath id="d7a2fb9c2e"><path d="M 5.933594 11 L 28 11 L 28 32.859375 L 5.933594 32.859375 Z M 5.933594 11 "/></clipPath><clipPath id="ad8d42f37f"><path d="M 24 1.070312 L 37.722656 1.070312 L 37.722656 15 L 24 15 Z M 24 1.070312 "/></clipPath></defs><g id="49636368e1"><g clip-rule="nonzero" clip-path="url(#00a0ec868f)"><path style=" stroke:none;fill-rule:nonzero;fill:#ffffff;fill-opacity:1;" d="M 0.941406 0 L 131.058594 0 L 131.058594 34.007812 L 0.941406 34.007812 Z M 0.941406 0 "/><path style=" stroke:none;fill-rule:nonzero;fill:#ffffff;fill-opacity:1;" d="M 0.941406 0 L 131.058594 0 L 131.058594 34.007812 L 0.941406 34.007812 Z M 0.941406 0 "/></g><g style="fill:#000000;fill-opacity:1;"><g transform="translate(42.507852, 12.564325)"><path style="stroke:none" d="M 5.015625 -10.1875 C 5.835938 -10.1875 6.523438 -9.988281 7.078125 -9.59375 C 7.816406 -9.0625 8.1875 -8.234375 8.1875 -7.109375 C 8.1875 -6.285156 7.957031 -5.585938 7.5 -5.015625 C 7.007812 -4.390625 6.320312 -4.078125 5.4375 -4.078125 C 4.96875 -4.078125 4.539062 -4.1875 4.15625 -4.40625 C 3.78125 -4.632812 3.5625 -5.019531 3.5 -5.5625 L 3.625 -5.609375 C 3.726562 -5.203125 3.972656 -4.914062 4.359375 -4.75 C 4.609375 -4.632812 4.832031 -4.578125 5.03125 -4.578125 C 5.8125 -4.578125 6.378906 -4.882812 6.734375 -5.5 C 6.984375 -5.9375 7.109375 -6.46875 7.109375 -7.09375 C 7.109375 -8.070312 6.835938 -8.78125 6.296875 -9.21875 C 5.878906 -9.5625 5.347656 -9.734375 4.703125 -9.734375 C 4.546875 -9.734375 4.410156 -9.722656 4.296875 -9.703125 C 4.191406 -9.691406 3.71875 -9.617188 2.875 -9.484375 L 2.875 -1.046875 C 2.882812 -0.785156 2.976562 -0.566406 3.15625 -0.390625 C 3.34375 -0.222656 3.550781 -0.140625 3.78125 -0.140625 L 3.96875 -0.140625 L 3.96875 0 L 0.859375 0 L 0.859375 -0.140625 L 1.046875 -0.140625 C 1.273438 -0.140625 1.476562 -0.222656 1.65625 -0.390625 C 1.84375 -0.566406 1.941406 -0.785156 1.953125 -1.046875 L 1.953125 -8.734375 C 1.953125 -8.984375 1.878906 -9.175781 1.734375 -9.3125 C 1.585938 -9.445312 1.40625 -9.515625 1.1875 -9.515625 C 1.132812 -9.515625 1.085938 -9.515625 1.046875 -9.515625 L 0.875 -9.5 L 0.84375 -9.640625 C 1.332031 -9.679688 1.992188 -9.769531 2.828125 -9.90625 C 3.660156 -10.050781 4.175781 -10.132812 4.375 -10.15625 C 4.570312 -10.175781 4.785156 -10.1875 5.015625 -10.1875 Z M 5.015625 -10.1875 "/></g></g><g style="fill:#000000;fill-opacity:1;"><g transform="translate(50.219173, 12.564325)"><path style="stroke:none" d="M 1.6875 -10.453125 C 2.3125 -10.703125 2.90625 -10.828125 3.46875 -10.828125 C 3.945312 -10.828125 4.4375 -10.65625 4.9375 -10.3125 C 5.21875 -10.113281 5.523438 -9.742188 5.859375 -9.203125 C 6.085938 -8.816406 6.378906 -8.125 6.734375 -7.125 L 8.46875 -2.203125 C 8.863281 -1.109375 9.269531 -0.238281 9.6875 0.40625 C 10.101562 1.0625 10.476562 1.550781 10.8125 1.875 C 11.15625 2.207031 11.507812 2.441406 11.875 2.578125 C 12.25 2.710938 12.554688 2.78125 12.796875 2.78125 C 13.046875 2.78125 13.265625 2.757812 13.453125 2.71875 L 13.46875 2.859375 C 13.007812 3.015625 12.5625 3.09375 12.125 3.09375 C 11.6875 3.09375 11.25 2.976562 10.8125 2.75 C 10.382812 2.53125 9.976562 2.222656 9.59375 1.828125 C 8.78125 0.992188 8.085938 -0.265625 7.515625 -1.953125 L 6.96875 -3.578125 L 3.0625 -3.578125 L 2.078125 -1.046875 C 2.035156 -0.929688 2.015625 -0.816406 2.015625 -0.703125 C 2.015625 -0.585938 2.0625 -0.460938 2.15625 -0.328125 C 2.257812 -0.203125 2.414062 -0.140625 2.625 -0.140625 L 2.734375 -0.140625 L 2.734375 0 L -0.125 0 L -0.125 -0.140625 L 0 -0.140625 C 0.226562 -0.140625 0.453125 -0.207031 0.671875 -0.34375 C 0.890625 -0.488281 1.070312 -0.695312 1.21875 -0.96875 L 4.734375 -9.421875 C 4.222656 -10.148438 3.585938 -10.515625 2.828125 -10.515625 C 2.492188 -10.515625 2.128906 -10.445312 1.734375 -10.3125 Z M 3.21875 -4 L 6.8125 -4 L 5.6875 -7.3125 C 5.476562 -7.945312 5.28125 -8.445312 5.09375 -8.8125 Z M 3.21875 -4 "/></g></g><g style="fill:#000000;fill-opacity:1;"><g transform="translate(59.922639, 12.564325)"><path style="stroke:none" d="M 4.578125 -0.140625 L 4.765625 -0.140625 L 4.765625 0 L 1.65625 0 L 1.65625 -0.140625 L 1.84375 -0.140625 C 2.082031 -0.140625 2.289062 -0.226562 2.46875 -0.40625 C 2.65625 -0.582031 2.75 -0.796875 2.75 -1.046875 L 2.75 -9.578125 L 1.21875 -9.5 C 0.257812 -9.4375 -0.21875 -9.085938 -0.21875 -8.453125 C -0.21875 -8.203125 -0.132812 -7.984375 0.03125 -7.796875 C 0.195312 -7.617188 0.460938 -7.519531 0.828125 -7.5 L 0.828125 -7.421875 C 0.691406 -7.390625 0.554688 -7.375 0.421875 -7.375 C 0.00390625 -7.375 -0.304688 -7.539062 -0.515625 -7.875 C -0.640625 -8.0625 -0.703125 -8.269531 -0.703125 -8.5 C -0.703125 -9.300781 -0.0859375 -9.769531 1.140625 -9.90625 C 1.148438 -9.90625 1.617188 -9.9375 2.546875 -10 C 3.484375 -10.0625 4.222656 -10.144531 4.765625 -10.25 L 4.796875 -10.109375 C 4.390625 -10.035156 4.097656 -9.894531 3.921875 -9.6875 C 3.753906 -9.476562 3.671875 -9.191406 3.671875 -8.828125 L 3.671875 -1.046875 C 3.679688 -0.796875 3.773438 -0.582031 3.953125 -0.40625 C 4.128906 -0.226562 4.335938 -0.140625 4.578125 -0.140625 Z M 4.578125 -0.140625 "/></g></g><g style="fill:#000000;fill-opacity:1;"><g transform="translate(65.229651, 12.564325)"><path style="stroke:none" d="M 15.015625 2.15625 C 14.253906 2.394531 13.570312 2.441406 12.96875 2.296875 C 12.332031 2.117188 11.78125 1.851562 11.3125 1.5 C 10.875 1.132812 10.421875 0.703125 9.953125 0.203125 L 2.453125 -8.109375 L 2.453125 -1 C 2.460938 -0.664062 2.609375 -0.414062 2.890625 -0.25 C 3.023438 -0.175781 3.164062 -0.140625 3.3125 -0.140625 L 3.59375 -0.140625 L 3.59375 0 L 0.65625 0 L 0.65625 -0.140625 L 0.921875 -0.140625 C 1.160156 -0.140625 1.363281 -0.222656 1.53125 -0.390625 C 1.707031 -0.554688 1.796875 -0.765625 1.796875 -1.015625 L 1.796875 -8.828125 C 1.742188 -8.890625 1.644531 -9.015625 1.5 -9.203125 C 1.363281 -9.390625 1.25 -9.539062 1.15625 -9.65625 C 1.0625 -9.769531 0.929688 -9.914062 0.765625 -10.09375 C 0.609375 -10.28125 0.457031 -10.429688 0.3125 -10.546875 C 0.175781 -10.660156 0.0195312 -10.796875 -0.15625 -10.953125 C -0.4375 -11.171875 -0.738281 -11.328125 -1.0625 -11.421875 C -1.382812 -11.515625 -1.65625 -11.5625 -1.875 -11.5625 C -2.101562 -11.5625 -2.347656 -11.519531 -2.609375 -11.4375 L -2.65625 -11.59375 C -2.207031 -11.78125 -1.769531 -11.875 -1.34375 -11.875 C -0.914062 -11.875 -0.550781 -11.820312 -0.25 -11.71875 C 0.0507812 -11.625 0.375 -11.445312 0.71875 -11.1875 C 1.070312 -10.925781 1.359375 -10.6875 1.578125 -10.46875 C 1.804688 -10.257812 2.078125 -9.976562 2.390625 -9.625 L 9.5625 -1.65625 L 9.5625 -8.953125 C 9.550781 -9.203125 9.460938 -9.410156 9.296875 -9.578125 C 9.128906 -9.742188 8.925781 -9.828125 8.6875 -9.828125 L 8.40625 -9.828125 L 8.40625 -9.96875 L 11.34375 -9.96875 L 11.34375 -9.828125 L 11.09375 -9.828125 C 10.851562 -9.828125 10.644531 -9.742188 10.46875 -9.578125 C 10.300781 -9.410156 10.210938 -9.207031 10.203125 -8.96875 L 10.203125 -0.921875 C 10.296875 -0.816406 10.429688 -0.660156 10.609375 -0.453125 C 10.785156 -0.242188 10.910156 -0.0976562 10.984375 -0.015625 C 11.054688 0.0664062 11.160156 0.1875 11.296875 0.34375 C 11.441406 0.507812 11.5625 0.640625 11.65625 0.734375 C 11.757812 0.828125 11.882812 0.941406 12.03125 1.078125 C 12.175781 1.210938 12.3125 1.316406 12.4375 1.390625 C 12.570312 1.472656 12.722656 1.566406 12.890625 1.671875 C 13.109375 1.804688 13.363281 1.90625 13.65625 1.96875 C 13.945312 2.039062 14.1875 2.078125 14.375 2.078125 C 14.5625 2.078125 14.757812 2.054688 14.96875 2.015625 Z M 15.015625 2.15625 "/></g></g><g style="fill:#000000;fill-opacity:1;"><g transform="translate(77.907149, 12.564325)"><path style="stroke:none" d="M -0.828125 -7.125 C -1.117188 -7.476562 -1.265625 -7.828125 -1.265625 -8.171875 C -1.265625 -8.523438 -1.179688 -8.828125 -1.015625 -9.078125 C -0.859375 -9.328125 -0.597656 -9.539062 -0.234375 -9.71875 C 0.117188 -9.894531 0.523438 -9.984375 0.984375 -9.984375 L 6.8125 -9.984375 C 7.113281 -9.984375 7.441406 -10.007812 7.796875 -10.0625 C 8.148438 -10.125 8.398438 -10.179688 8.546875 -10.234375 L 8.546875 -8.4375 L 8.40625 -8.453125 L 8.40625 -8.703125 C 8.40625 -8.921875 8.320312 -9.113281 8.15625 -9.28125 C 8 -9.445312 7.8125 -9.535156 7.59375 -9.546875 L 4.890625 -9.546875 L 4.890625 -1.03125 C 4.890625 -0.6875 5.039062 -0.425781 5.34375 -0.25 C 5.476562 -0.175781 5.628906 -0.140625 5.796875 -0.140625 L 5.984375 -0.140625 L 5.984375 0 L 2.859375 0 L 2.859375 -0.140625 L 3.046875 -0.140625 C 3.296875 -0.140625 3.503906 -0.222656 3.671875 -0.390625 C 3.847656 -0.566406 3.941406 -0.773438 3.953125 -1.015625 L 3.953125 -9.546875 L 0.984375 -9.546875 C 0.222656 -9.546875 -0.328125 -9.304688 -0.671875 -8.828125 C -0.847656 -8.578125 -0.9375 -8.316406 -0.9375 -8.046875 C -0.9375 -7.773438 -0.859375 -7.492188 -0.703125 -7.203125 Z M -0.828125 -7.125 "/></g></g><g style="fill:#000000;fill-opacity:1;"><g transform="translate(86.700151, 12.564325)"><path style="stroke:none" d="M 1.046875 -0.140625 C 1.285156 -0.140625 1.492188 -0.226562 1.671875 -0.40625 C 1.847656 -0.582031 1.941406 -0.796875 1.953125 -1.046875 L 1.953125 -9.015625 C 1.953125 -9.242188 1.859375 -9.4375 1.671875 -9.59375 C 1.492188 -9.75 1.285156 -9.828125 1.046875 -9.828125 L 0.875 -9.828125 L 0.859375 -9.96875 L 3.75 -9.96875 C 4.039062 -9.96875 4.359375 -9.992188 4.703125 -10.046875 C 5.046875 -10.109375 5.289062 -10.164062 5.4375 -10.21875 L 5.4375 -8.421875 L 5.296875 -8.421875 L 5.296875 -8.6875 C 5.296875 -8.914062 5.21875 -9.109375 5.0625 -9.265625 C 4.90625 -9.429688 4.71875 -9.515625 4.5 -9.515625 L 2.875 -9.515625 L 2.875 -5.125 L 5.578125 -5.125 C 5.765625 -5.132812 5.925781 -5.203125 6.0625 -5.328125 C 6.195312 -5.460938 6.265625 -5.632812 6.265625 -5.84375 L 6.265625 -6.03125 L 6.40625 -6.03125 L 6.40625 -3.78125 L 6.265625 -3.78125 L 6.265625 -4 C 6.265625 -4.1875 6.195312 -4.347656 6.0625 -4.484375 C 5.9375 -4.617188 5.78125 -4.691406 5.59375 -4.703125 L 2.875 -4.703125 L 2.875 -0.4375 L 5.90625 -0.4375 C 6.601562 -0.4375 7.140625 -0.59375 7.515625 -0.90625 C 7.890625 -1.21875 8.195312 -1.6875 8.4375 -2.3125 L 8.578125 -2.3125 L 7.75 0 L 0.859375 0 L 0.859375 -0.140625 Z M 1.046875 -0.140625 "/></g></g><g style="fill:#000000;fill-opacity:1;"><g transform="translate(95.194311, 12.564325)"><path style="stroke:none" d="M 13.5 2.421875 C 13.09375 2.523438 12.734375 2.578125 12.421875 2.578125 C 12.117188 2.578125 11.847656 2.554688 11.609375 2.515625 C 11.378906 2.484375 11.128906 2.410156 10.859375 2.296875 C 10.585938 2.191406 10.332031 2.066406 10.09375 1.921875 C 9.851562 1.773438 9.613281 1.597656 9.375 1.390625 C 8.9375 1.046875 8.539062 0.664062 8.1875 0.25 C 7.832031 -0.15625 7.144531 -0.921875 6.125 -2.046875 C 5.113281 -3.171875 4.441406 -3.914062 4.109375 -4.28125 C 3.773438 -4.65625 3.519531 -4.851562 3.34375 -4.875 L 3.34375 -5.015625 C 3.894531 -5.015625 4.257812 -5.023438 4.4375 -5.046875 C 4.625 -5.066406 4.820312 -5.109375 5.03125 -5.171875 C 5.25 -5.234375 5.425781 -5.316406 5.5625 -5.421875 C 6.125 -5.785156 6.40625 -6.382812 6.40625 -7.21875 C 6.40625 -7.90625 6.25 -8.457031 5.9375 -8.875 C 5.632812 -9.300781 5.203125 -9.515625 4.640625 -9.515625 L 2.875 -9.515625 L 2.875 -1.046875 C 2.875 -0.804688 2.960938 -0.59375 3.140625 -0.40625 C 3.316406 -0.226562 3.53125 -0.140625 3.78125 -0.140625 L 3.953125 -0.140625 L 3.96875 0 L 0.859375 0 L 0.859375 -0.140625 L 1.046875 -0.140625 C 1.273438 -0.140625 1.476562 -0.222656 1.65625 -0.390625 C 1.84375 -0.566406 1.941406 -0.78125 1.953125 -1.03125 L 1.953125 -8.921875 C 1.941406 -9.171875 1.847656 -9.382812 1.671875 -9.5625 C 1.492188 -9.738281 1.285156 -9.828125 1.046875 -9.828125 L 0.859375 -9.828125 L 0.859375 -9.96875 L 4.703125 -9.96875 C 5.535156 -9.96875 6.203125 -9.734375 6.703125 -9.265625 C 7.210938 -8.796875 7.46875 -8.171875 7.46875 -7.390625 C 7.46875 -6.617188 7.234375 -5.953125 6.765625 -5.390625 C 6.304688 -4.835938 5.738281 -4.5625 5.0625 -4.5625 C 5.0625 -4.5625 5.054688 -4.5625 5.046875 -4.5625 C 5.367188 -4.226562 5.738281 -3.832031 6.15625 -3.375 C 7.789062 -1.5625 8.835938 -0.425781 9.296875 0.03125 C 9.765625 0.5 10.175781 0.882812 10.53125 1.1875 C 10.894531 1.488281 11.210938 1.707031 11.484375 1.84375 C 12.046875 2.15625 12.601562 2.3125 13.15625 2.3125 C 13.269531 2.3125 13.382812 2.300781 13.5 2.28125 Z M 13.5 2.421875 "/></g></g><g style="fill:#000000;fill-opacity:1;"><g transform="translate(104.471066, 12.564325)"><path style="stroke:none" d="M 0.640625 -8.625 C 0.910156 -8.707031 1.09375 -8.828125 1.1875 -8.984375 C 1.28125 -9.148438 1.328125 -9.273438 1.328125 -9.359375 C 1.328125 -9.597656 1.226562 -9.832031 1.03125 -10.0625 C 0.875 -10.226562 0.785156 -10.347656 0.765625 -10.421875 C 0.734375 -10.566406 0.75 -10.695312 0.8125 -10.8125 C 0.894531 -11.007812 1.054688 -11.109375 1.296875 -11.109375 C 1.585938 -11.109375 1.785156 -10.972656 1.890625 -10.703125 C 2.003906 -10.429688 2.0625 -10.171875 2.0625 -9.921875 C 2.0625 -9.671875 1.988281 -9.425781 1.84375 -9.1875 C 1.550781 -8.75 1.160156 -8.523438 0.671875 -8.515625 Z M 0.640625 -8.625 "/></g></g><g style="fill:#000000;fill-opacity:1;"><g transform="translate(107.160183, 12.564325)"><path style="stroke:none" d="M 1.6875 -3.78125 C 1.195312 -3.132812 0.953125 -2.4375 0.953125 -1.6875 C 0.953125 -0.800781 1.328125 -0.109375 2.078125 0.390625 C 2.515625 0.679688 3.007812 0.828125 3.5625 0.828125 C 4.113281 0.828125 4.597656 0.71875 5.015625 0.5 C 5.773438 0.101562 6.207031 -0.566406 6.3125 -1.515625 C 6.3125 -1.578125 6.3125 -1.640625 6.3125 -1.703125 C 6.3125 -2.054688 6.210938 -2.4375 6.015625 -2.84375 C 5.828125 -3.25 5.515625 -3.625 5.078125 -3.96875 L 2.515625 -6 C 1.953125 -6.425781 1.671875 -6.984375 1.671875 -7.671875 C 1.671875 -8.367188 1.894531 -8.957031 2.34375 -9.4375 C 2.789062 -9.914062 3.394531 -10.15625 4.15625 -10.15625 C 4.53125 -10.15625 4.941406 -10.109375 5.390625 -10.015625 L 5.96875 -10.015625 L 6 -8.265625 L 5.84375 -8.265625 C 5.84375 -8.722656 5.679688 -9.082031 5.359375 -9.34375 C 5.035156 -9.601562 4.632812 -9.734375 4.15625 -9.734375 C 3.675781 -9.734375 3.273438 -9.570312 2.953125 -9.25 C 2.640625 -8.9375 2.484375 -8.53125 2.484375 -8.03125 C 2.484375 -7.53125 2.691406 -7.117188 3.109375 -6.796875 L 5.734375 -4.71875 C 6.773438 -3.882812 7.296875 -2.882812 7.296875 -1.71875 C 7.296875 -0.84375 6.953125 -0.09375 6.265625 0.53125 C 5.660156 1.070312 4.863281 1.34375 3.875 1.34375 C 3.257812 1.34375 2.71875 1.226562 2.25 1 C 1.351562 0.582031 0.816406 -0.128906 0.640625 -1.140625 C 0.609375 -1.285156 0.59375 -1.472656 0.59375 -1.703125 C 0.59375 -1.941406 0.660156 -2.265625 0.796875 -2.671875 C 0.929688 -3.078125 1.1875 -3.484375 1.5625 -3.890625 Z M 1.6875 -3.78125 "/></g></g><g style="fill:#000000;fill-opacity:1;"><g transform="translate(58.998057, 32.147127)"><path style="stroke:none" d="M -0.828125 -7.125 C -1.117188 -7.476562 -1.265625 -7.828125 -1.265625 -8.171875 C -1.265625 -8.523438 -1.179688 -8.828125 -1.015625 -9.078125 C -0.859375 -9.328125 -0.597656 -9.539062 -0.234375 -9.71875 C 0.117188 -9.894531 0.523438 -9.984375 0.984375 -9.984375 L 6.8125 -9.984375 C 7.113281 -9.984375 7.441406 -10.007812 7.796875 -10.0625 C 8.148438 -10.125 8.398438 -10.179688 8.546875 -10.234375 L 8.546875 -8.4375 L 8.40625 -8.453125 L 8.40625 -8.703125 C 8.40625 -8.921875 8.320312 -9.113281 8.15625 -9.28125 C 8 -9.445312 7.8125 -9.535156 7.59375 -9.546875 L 4.890625 -9.546875 L 4.890625 -1.03125 C 4.890625 -0.6875 5.039062 -0.425781 5.34375 -0.25 C 5.476562 -0.175781 5.628906 -0.140625 5.796875 -0.140625 L 5.984375 -0.140625 L 5.984375 0 L 2.859375 0 L 2.859375 -0.140625 L 3.046875 -0.140625 C 3.296875 -0.140625 3.503906 -0.222656 3.671875 -0.390625 C 3.847656 -0.566406 3.941406 -0.773438 3.953125 -1.015625 L 3.953125 -9.546875 L 0.984375 -9.546875 C 0.222656 -9.546875 -0.328125 -9.304688 -0.671875 -8.828125 C -0.847656 -8.578125 -0.9375 -8.316406 -0.9375 -8.046875 C -0.9375 -7.773438 -0.859375 -7.492188 -0.703125 -7.203125 Z M -0.828125 -7.125 "/></g></g><g style="fill:#000000;fill-opacity:1;"><g transform="translate(67.791059, 32.147127)"><path style="stroke:none" d="M 1.046875 -0.140625 C 1.285156 -0.140625 1.492188 -0.226562 1.671875 -0.40625 C 1.847656 -0.582031 1.941406 -0.796875 1.953125 -1.046875 L 1.953125 -9.015625 C 1.953125 -9.242188 1.859375 -9.4375 1.671875 -9.59375 C 1.492188 -9.75 1.285156 -9.828125 1.046875 -9.828125 L 0.875 -9.828125 L 0.859375 -9.96875 L 3.75 -9.96875 C 4.039062 -9.96875 4.359375 -9.992188 4.703125 -10.046875 C 5.046875 -10.109375 5.289062 -10.164062 5.4375 -10.21875 L 5.4375 -8.421875 L 5.296875 -8.421875 L 5.296875 -8.6875 C 5.296875 -8.914062 5.21875 -9.109375 5.0625 -9.265625 C 4.90625 -9.429688 4.71875 -9.515625 4.5 -9.515625 L 2.875 -9.515625 L 2.875 -5.125 L 5.578125 -5.125 C 5.765625 -5.132812 5.925781 -5.203125 6.0625 -5.328125 C 6.195312 -5.460938 6.265625 -5.632812 6.265625 -5.84375 L 6.265625 -6.03125 L 6.40625 -6.03125 L 6.40625 -3.78125 L 6.265625 -3.78125 L 6.265625 -4 C 6.265625 -4.1875 6.195312 -4.347656 6.0625 -4.484375 C 5.9375 -4.617188 5.78125 -4.691406 5.59375 -4.703125 L 2.875 -4.703125 L 2.875 -0.4375 L 5.90625 -0.4375 C 6.601562 -0.4375 7.140625 -0.59375 7.515625 -0.90625 C 7.890625 -1.21875 8.195312 -1.6875 8.4375 -2.3125 L 8.578125 -2.3125 L 7.75 0 L 0.859375 0 L 0.859375 -0.140625 Z M 1.046875 -0.140625 "/></g></g><g clip-rule="nonzero" clip-path="url(#5f8c04452a)"><g style="fill:#000000;fill-opacity:1;"><g transform="translate(76.427549, 32.147127)"><path style="stroke:none" d="M 15.65625 2.3125 C 15.71875 2.3125 15.773438 2.3125 15.828125 2.3125 L 15.828125 2.453125 C 15.566406 2.484375 15.269531 2.5 14.9375 2.5 C 14.613281 2.5 14.210938 2.425781 13.734375 2.28125 C 13.253906 2.144531 12.816406 1.882812 12.421875 1.5 C 11.628906 0.695312 11.144531 -0.335938 10.96875 -1.609375 L 10.109375 -7.9375 L 7.140625 -1.25 C 6.878906 -0.675781 6.71875 -0.191406 6.65625 0.203125 L 6.515625 0.203125 L 2.828125 -7.8125 L 2.203125 -0.734375 C 2.179688 -0.578125 2.226562 -0.4375 2.34375 -0.3125 C 2.46875 -0.1875 2.601562 -0.125 2.75 -0.125 L 2.96875 -0.125 L 2.96875 0 L 0.21875 0 L 0.21875 -0.140625 L 0.4375 -0.140625 C 0.695312 -0.140625 0.921875 -0.21875 1.109375 -0.375 C 1.304688 -0.53125 1.429688 -0.738281 1.484375 -1 L 2.375 -8.765625 C 1.539062 -10.410156 0.539062 -11.234375 -0.625 -11.234375 C -0.726562 -11.234375 -0.835938 -11.226562 -0.953125 -11.21875 L -0.953125 -11.359375 C -0.691406 -11.421875 -0.476562 -11.453125 -0.3125 -11.453125 C -0.15625 -11.453125 0.015625 -11.445312 0.203125 -11.4375 C 0.390625 -11.425781 0.609375 -11.378906 0.859375 -11.296875 C 1.117188 -11.222656 1.363281 -11.113281 1.59375 -10.96875 C 1.820312 -10.820312 2.019531 -10.671875 2.1875 -10.515625 C 2.363281 -10.359375 2.523438 -10.1875 2.671875 -10 C 2.929688 -9.65625 3.132812 -9.328125 3.28125 -9.015625 L 6.71875 -1.578125 L 10.546875 -10.15625 L 10.671875 -10.15625 L 12 -1.734375 C 12.195312 -0.410156 12.625 0.59375 13.28125 1.28125 C 13.945312 1.96875 14.738281 2.3125 15.65625 2.3125 Z M 15.65625 2.3125 "/></g></g></g><g style="fill:#000000;fill-opacity:1;"><g transform="translate(89.67396, 32.147127)"><path style="stroke:none" d="M 5.015625 -10.1875 C 5.835938 -10.1875 6.523438 -9.988281 7.078125 -9.59375 C 7.816406 -9.0625 8.1875 -8.234375 8.1875 -7.109375 C 8.1875 -6.285156 7.957031 -5.585938 7.5 -5.015625 C 7.007812 -4.390625 6.320312 -4.078125 5.4375 -4.078125 C 4.96875 -4.078125 4.539062 -4.1875 4.15625 -4.40625 C 3.78125 -4.632812 3.5625 -5.019531 3.5 -5.5625 L 3.625 -5.609375 C 3.726562 -5.203125 3.972656 -4.914062 4.359375 -4.75 C 4.609375 -4.632812 4.832031 -4.578125 5.03125 -4.578125 C 5.8125 -4.578125 6.378906 -4.882812 6.734375 -5.5 C 6.984375 -5.9375 7.109375 -6.46875 7.109375 -7.09375 C 7.109375 -8.070312 6.835938 -8.78125 6.296875 -9.21875 C 5.878906 -9.5625 5.347656 -9.734375 4.703125 -9.734375 C 4.546875 -9.734375 4.410156 -9.722656 4.296875 -9.703125 C 4.191406 -9.691406 3.71875 -9.617188 2.875 -9.484375 L 2.875 -1.046875 C 2.882812 -0.785156 2.976562 -0.566406 3.15625 -0.390625 C 3.34375 -0.222656 3.550781 -0.140625 3.78125 -0.140625 L 3.96875 -0.140625 L 3.96875 0 L 0.859375 0 L 0.859375 -0.140625 L 1.046875 -0.140625 C 1.273438 -0.140625 1.476562 -0.222656 1.65625 -0.390625 C 1.84375 -0.566406 1.941406 -0.785156 1.953125 -1.046875 L 1.953125 -8.734375 C 1.953125 -8.984375 1.878906 -9.175781 1.734375 -9.3125 C 1.585938 -9.445312 1.40625 -9.515625 1.1875 -9.515625 C 1.132812 -9.515625 1.085938 -9.515625 1.046875 -9.515625 L 0.875 -9.5 L 0.84375 -9.640625 C 1.332031 -9.679688 1.992188 -9.769531 2.828125 -9.90625 C 3.660156 -10.050781 4.175781 -10.132812 4.375 -10.15625 C 4.570312 -10.175781 4.785156 -10.1875 5.015625 -10.1875 Z M 5.015625 -10.1875 "/></g></g><path style=" stroke:none;fill-rule:nonzero;fill:#f0b551;fill-opacity:1;" d="M 24.222656 11.226562 L 21.464844 8.472656 C 21.0625 8.066406 20.503906 7.839844 19.925781 7.839844 C 19.34375 7.839844 18.785156 8.066406 18.382812 8.472656 L 17.269531 9.609375 L 26.699219 19.039062 C 26.75 19.089844 26.75 19.167969 26.699219 19.214844 C 26.675781 19.214844 26.625 19.242188 26.597656 19.242188 C 26.574219 19.242188 26.523438 19.242188 26.523438 19.214844 L 16.992188 9.683594 L 16.738281 9.433594 L 14.867188 11.304688 L 15.121094 11.554688 L 16.003906 12.441406 L 16.964844 13.402344 L 18.054688 14.488281 L 20.101562 16.535156 L 21.136719 17.574219 L 22.175781 18.609375 L 23.234375 19.671875 L 25.335938 21.769531 L 27.207031 23.640625 L 27.457031 23.894531 L 29.328125 22.023438 L 29.078125 21.769531 C 29.050781 21.746094 29.050781 21.71875 29.050781 21.695312 C 29.050781 21.667969 29.078125 21.617188 29.078125 21.617188 L 30.289062 20.40625 C 30.695312 20 30.921875 19.445312 30.921875 18.863281 C 30.921875 18.28125 30.695312 17.726562 30.289062 17.320312 L 27.558594 14.566406 Z M 24.222656 11.226562 "/><path style=" stroke:none;fill-rule:nonzero;fill:#73badd;fill-opacity:1;" d="M 18.785156 15.5 L 18.027344 14.691406 L 17.976562 14.765625 L 10.921875 21.820312 C 10.898438 21.847656 10.871094 21.847656 10.847656 21.847656 C 10.824219 21.847656 10.796875 21.847656 10.773438 21.820312 C 10.722656 21.769531 10.722656 21.695312 10.773438 21.644531 L 17.824219 14.589844 L 17.902344 14.515625 L 16.992188 13.605469 L 16.890625 13.679688 L 9.332031 21.238281 L 10.242188 24.171875 L 18.761719 15.601562 Z M 18.785156 15.5 "/><path style=" stroke:none;fill-rule:nonzero;fill:#acd9ea;fill-opacity:1;" d="M 20.984375 17.597656 L 20.125 16.738281 L 20.050781 16.839844 L 12.996094 23.894531 C 12.972656 23.917969 12.945312 23.917969 12.921875 23.917969 C 12.894531 23.917969 12.871094 23.917969 12.84375 23.894531 C 12.792969 23.84375 12.792969 23.765625 12.84375 23.71875 L 19.898438 16.664062 L 19.847656 16.585938 L 18.785156 15.675781 L 18.835938 15.753906 L 10.34375 24.347656 L 13.300781 25.257812 L 20.882812 17.699219 Z M 20.984375 17.597656 "/><path style=" stroke:none;fill-rule:nonzero;fill:#acd9ea;fill-opacity:1;" d="M 16.789062 13.425781 L 16.003906 12.644531 L 8.875 19.773438 C 8.851562 19.796875 8.824219 19.796875 8.800781 19.796875 C 8.773438 19.796875 8.75 19.796875 8.722656 19.773438 C 8.671875 19.722656 8.671875 19.648438 8.722656 19.597656 L 15.753906 12.542969 L 15.828125 12.464844 L 15.121094 11.757812 L 6.472656 20.40625 L 9.152344 21.085938 L 16.714844 13.527344 Z M 16.789062 13.425781 "/><path style=" stroke:none;fill-rule:nonzero;fill:#acd9ea;fill-opacity:1;" d="M 25.15625 21.796875 L 24.246094 20.886719 L 17.117188 28.015625 C 17.09375 28.039062 17.066406 28.039062 17.042969 28.039062 C 17.015625 28.039062 16.964844 28.039062 16.964844 28.015625 C 16.914062 27.964844 16.914062 27.886719 16.964844 27.839844 L 24.019531 20.785156 L 24.09375 20.707031 L 23.285156 19.898438 L 23.210938 19.976562 L 14.640625 28.546875 L 17.574219 29.457031 L 25.132812 21.898438 Z M 25.15625 21.796875 "/><path style=" stroke:none;fill-rule:nonzero;fill:#73badd;fill-opacity:1;" d="M 23.085938 19.695312 L 22.199219 18.8125 L 22.125 18.886719 L 15.042969 25.941406 C 15.019531 25.96875 14.992188 25.96875 14.96875 25.96875 C 14.945312 25.96875 14.917969 25.96875 14.894531 25.941406 C 14.84375 25.890625 14.84375 25.816406 14.894531 25.765625 L 21.945312 18.710938 L 22.023438 18.636719 L 21.164062 17.777344 L 21.0625 17.875 L 13.503906 25.4375 L 14.414062 28.367188 Z M 23.085938 19.695312 "/><g clip-rule="nonzero" clip-path="url(#4b8f42fd10)"><path style=" stroke:none;fill-rule:nonzero;fill:#73badd;fill-opacity:1;" d="M 26.296875 22.78125 L 26.21875 22.933594 L 19.164062 30.011719 C 19.140625 30.039062 19.113281 30.0625 19.089844 30.0625 C 19.0625 30.0625 19.015625 30.0625 19.015625 30.039062 C 18.964844 29.988281 18.964844 29.910156 19.015625 29.859375 L 26.144531 22.730469 L 25.359375 21.945312 L 25.285156 22.023438 L 17.675781 29.609375 L 18.382812 32.3125 L 26.953125 23.691406 L 27.027344 23.539062 Z M 26.296875 22.78125 "/></g><path style=" stroke:none;fill-rule:nonzero;fill:#cccccc;fill-opacity:1;" d="M 15.042969 11.757812 L 15.753906 12.464844 Z M 15.042969 11.757812 "/><g clip-rule="nonzero" clip-path="url(#31dfb4127f)"><path style=" stroke:none;fill-rule:nonzero;fill:#ef934a;fill-opacity:1;" d="M 36.660156 2.203125 L 36.585938 2.152344 C 36.179688 1.746094 35.625 1.542969 35.042969 1.542969 C 34.460938 1.542969 33.878906 1.746094 33.476562 2.152344 L 24.347656 11.226562 L 27.636719 14.386719 L 36.6875 5.285156 C 37.089844 4.882812 37.292969 4.324219 37.292969 3.742188 C 37.316406 3.164062 37.066406 2.605469 36.660156 2.203125 Z M 35.902344 4.832031 C 35.648438 5.082031 35.296875 5.234375 34.941406 5.234375 C 34.585938 5.234375 34.234375 5.082031 33.980469 4.832031 C 33.726562 4.578125 33.578125 4.222656 33.578125 3.871094 C 33.578125 3.515625 33.726562 3.164062 33.980469 2.910156 C 34.234375 2.65625 34.585938 2.503906 34.941406 2.503906 C 35.296875 2.503906 35.648438 2.65625 35.902344 2.910156 C 36.433594 3.441406 36.433594 4.300781 35.902344 4.832031 Z M 35.902344 4.832031 "/></g><path style=" stroke:none;fill-rule:nonzero;fill:#f0b551;fill-opacity:1;" d="M 34.941406 4.984375 C 35.246094 4.984375 35.523438 4.855469 35.726562 4.652344 C 36.15625 4.222656 36.15625 3.515625 35.726562 3.085938 C 35.523438 2.882812 35.246094 2.757812 34.941406 2.757812 C 34.636719 2.757812 34.359375 2.882812 34.15625 3.085938 C 33.957031 3.289062 33.828125 3.566406 33.828125 3.871094 C 33.828125 4.171875 33.957031 4.453125 34.15625 4.652344 C 34.359375 4.855469 34.636719 4.984375 34.941406 4.984375 Z M 34.941406 4.984375 "/><path style=" stroke:none;fill-rule:nonzero;fill:#000000;fill-opacity:1;" d="M 27.484375 24.347656 C 27.40625 24.347656 27.355469 24.324219 27.304688 24.273438 L 14.539062 11.503906 C 14.488281 11.453125 14.464844 11.40625 14.464844 11.328125 C 14.464844 11.253906 14.488281 11.203125 14.539062 11.152344 L 16.585938 9.105469 C 16.6875 9.003906 16.839844 9.003906 16.941406 9.105469 L 17.09375 9.253906 L 18.128906 8.21875 C 19.113281 7.234375 20.757812 7.234375 21.746094 8.21875 L 30.566406 17.042969 C 31.554688 18.027344 31.578125 19.671875 30.59375 20.683594 L 29.554688 21.71875 L 29.707031 21.871094 C 29.808594 21.972656 29.808594 22.125 29.707031 22.226562 L 27.660156 24.273438 C 27.609375 24.324219 27.558594 24.347656 27.484375 24.347656 Z M 15.070312 11.328125 L 27.484375 23.742188 L 29.175781 22.046875 L 29.027344 21.898438 C 28.925781 21.796875 28.925781 21.644531 29.027344 21.542969 L 30.238281 20.328125 C 31.023438 19.519531 31.023438 18.207031 30.214844 17.394531 L 21.390625 8.574219 C 20.605469 7.789062 19.265625 7.789062 18.484375 8.574219 L 17.269531 9.785156 C 17.167969 9.886719 17.015625 9.886719 16.914062 9.785156 L 16.765625 9.632812 Z M 15.070312 11.328125 "/><g clip-rule="nonzero" clip-path="url(#d7a2fb9c2e)"><path style=" stroke:none;fill-rule:nonzero;fill:#000000;fill-opacity:1;" d="M 18.332031 32.820312 C 18.304688 32.820312 18.28125 32.820312 18.253906 32.820312 C 18.179688 32.792969 18.105469 32.71875 18.078125 32.640625 L 17.320312 29.785156 L 14.261719 28.847656 C 14.183594 28.824219 14.109375 28.773438 14.082031 28.671875 L 13.148438 25.585938 L 10.0625 24.652344 C 9.988281 24.628906 9.914062 24.578125 9.886719 24.476562 L 8.953125 21.417969 L 6.121094 20.683594 C 6.042969 20.65625 5.96875 20.582031 5.941406 20.507812 C 5.917969 20.429688 5.941406 20.328125 6.019531 20.253906 L 14.84375 11.453125 C 14.945312 11.355469 15.09375 11.355469 15.195312 11.453125 C 15.296875 11.554688 15.296875 11.707031 15.195312 11.808594 L 6.675781 20.304688 L 9.203125 20.960938 C 9.28125 20.988281 9.355469 21.035156 9.382812 21.136719 L 10.316406 24.199219 L 13.402344 25.132812 C 13.476562 25.15625 13.554688 25.207031 13.578125 25.308594 L 14.511719 28.394531 L 17.574219 29.328125 C 17.648438 29.355469 17.722656 29.429688 17.75 29.507812 L 18.433594 32.058594 L 26.925781 23.539062 C 27.027344 23.4375 27.179688 23.4375 27.28125 23.539062 C 27.382812 23.640625 27.382812 23.792969 27.28125 23.894531 L 18.484375 32.71875 C 18.457031 32.792969 18.40625 32.820312 18.332031 32.820312 Z M 18.332031 32.820312 "/></g><g clip-rule="nonzero" clip-path="url(#ad8d42f37f)"><path style=" stroke:none;fill-rule:nonzero;fill:#000000;fill-opacity:1;" d="M 27.660156 14.742188 C 27.585938 14.742188 27.535156 14.714844 27.484375 14.664062 C 27.382812 14.566406 27.382812 14.414062 27.484375 14.3125 L 36.585938 5.210938 C 37.367188 4.425781 37.367188 3.085938 36.585938 2.304688 L 36.507812 2.226562 C 36.128906 1.824219 35.625 1.621094 35.066406 1.621094 C 34.511719 1.621094 34.007812 1.847656 33.628906 2.226562 L 24.523438 11.328125 C 24.425781 11.429688 24.273438 11.429688 24.171875 11.328125 C 24.070312 11.226562 24.070312 11.074219 24.171875 10.976562 L 33.273438 1.875 C 33.753906 1.394531 34.386719 1.113281 35.09375 1.113281 C 35.777344 1.113281 36.433594 1.394531 36.914062 1.875 L 36.988281 1.949219 C 37.46875 2.429688 37.722656 3.0625 37.722656 3.769531 C 37.722656 4.476562 37.46875 5.109375 36.988281 5.589844 L 27.886719 14.691406 C 27.785156 14.714844 27.734375 14.742188 27.660156 14.742188 Z M 27.660156 14.742188 "/></g><path style=" stroke:none;fill-rule:nonzero;fill:#000000;fill-opacity:1;" d="M 34.941406 5.363281 C 34.105469 5.363281 33.449219 4.703125 33.449219 3.871094 C 33.449219 3.035156 34.105469 2.378906 34.941406 2.378906 C 35.777344 2.378906 36.433594 3.035156 36.433594 3.871094 C 36.433594 4.703125 35.777344 5.363281 34.941406 5.363281 Z M 34.941406 2.882812 C 34.386719 2.882812 33.957031 3.3125 33.957031 3.871094 C 33.957031 4.425781 34.410156 4.855469 34.941406 4.855469 C 35.472656 4.855469 35.925781 4.425781 35.925781 3.871094 C 35.925781 3.3125 35.496094 2.882812 34.941406 2.882812 Z M 34.941406 2.882812 "/><path style=" stroke:none;fill-rule:nonzero;fill:#000000;fill-opacity:1;" d="M 13.351562 25.636719 C 13.273438 25.636719 13.222656 25.613281 13.171875 25.5625 C 13.074219 25.460938 13.074219 25.308594 13.171875 25.207031 L 20.882812 17.523438 C 20.984375 17.421875 21.136719 17.421875 21.238281 17.523438 C 21.339844 17.625 21.339844 17.777344 21.238281 17.875 L 13.527344 25.5625 C 13.476562 25.613281 13.425781 25.636719 13.351562 25.636719 Z M 13.351562 25.636719 "/><path style=" stroke:none;fill-rule:nonzero;fill:#000000;fill-opacity:1;" d="M 10.164062 24.652344 C 10.089844 24.652344 10.039062 24.628906 9.988281 24.578125 C 9.886719 24.476562 9.886719 24.324219 9.988281 24.222656 L 18.8125 15.425781 C 18.914062 15.324219 19.0625 15.324219 19.164062 15.425781 C 19.265625 15.527344 19.265625 15.675781 19.164062 15.777344 L 10.34375 24.578125 C 10.292969 24.628906 10.242188 24.652344 10.164062 24.652344 Z M 10.164062 24.652344 "/><path style=" stroke:none;fill-rule:nonzero;fill:#000000;fill-opacity:1;" d="M 9.179688 21.46875 C 9.101562 21.46875 9.050781 21.441406 9.003906 21.390625 C 8.902344 21.289062 8.902344 21.136719 9.003906 21.035156 L 16.714844 13.324219 C 16.8125 13.226562 16.964844 13.226562 17.066406 13.324219 C 17.167969 13.425781 17.167969 13.578125 17.066406 13.679688 L 9.355469 21.390625 C 9.304688 21.441406 9.253906 21.46875 9.179688 21.46875 Z M 9.179688 21.46875 "/><path style=" stroke:none;fill-rule:nonzero;fill:#000000;fill-opacity:1;" d="M 8.800781 19.925781 C 8.722656 19.925781 8.671875 19.898438 8.621094 19.847656 C 8.523438 19.746094 8.523438 19.597656 8.621094 19.496094 L 15.753906 12.363281 C 15.855469 12.265625 16.003906 12.265625 16.105469 12.363281 C 16.207031 12.464844 16.207031 12.617188 16.105469 12.71875 L 8.976562 19.847656 C 8.925781 19.898438 8.875 19.925781 8.800781 19.925781 Z M 8.800781 19.925781 "/><path style=" stroke:none;fill-rule:nonzero;fill:#000000;fill-opacity:1;" d="M 10.847656 21.996094 C 10.773438 21.996094 10.722656 21.972656 10.671875 21.921875 C 10.570312 21.820312 10.570312 21.667969 10.671875 21.566406 L 17.800781 14.4375 C 17.902344 14.335938 18.054688 14.335938 18.152344 14.4375 C 18.253906 14.539062 18.253906 14.691406 18.152344 14.792969 L 11.023438 21.921875 C 10.972656 21.972656 10.921875 21.996094 10.847656 21.996094 Z M 10.847656 21.996094 "/><path style=" stroke:none;fill-rule:nonzero;fill:#000000;fill-opacity:1;" d="M 12.921875 24.046875 C 12.84375 24.046875 12.792969 24.019531 12.742188 23.96875 C 12.644531 23.867188 12.644531 23.71875 12.742188 23.617188 L 19.875 16.484375 C 19.972656 16.386719 20.125 16.386719 20.226562 16.484375 C 20.328125 16.585938 20.328125 16.738281 20.226562 16.839844 L 13.097656 23.96875 C 13.046875 24.019531 12.996094 24.046875 12.921875 24.046875 Z M 12.921875 24.046875 "/><path style=" stroke:none;fill-rule:nonzero;fill:#000000;fill-opacity:1;" d="M 14.96875 26.09375 C 14.894531 26.09375 14.84375 26.066406 14.792969 26.019531 C 14.691406 25.917969 14.691406 25.765625 14.792969 25.664062 L 21.921875 18.535156 C 22.023438 18.433594 22.175781 18.433594 22.273438 18.535156 C 22.375 18.636719 22.375 18.785156 22.273438 18.886719 L 15.144531 26.019531 C 15.09375 26.066406 15.042969 26.09375 14.96875 26.09375 Z M 14.96875 26.09375 "/><path style=" stroke:none;fill-rule:nonzero;fill:#000000;fill-opacity:1;" d="M 17.015625 28.167969 C 16.941406 28.167969 16.890625 28.140625 16.839844 28.089844 C 16.738281 27.988281 16.738281 27.839844 16.839844 27.738281 L 23.96875 20.605469 C 24.070312 20.507812 24.222656 20.507812 24.324219 20.605469 C 24.425781 20.707031 24.425781 20.859375 24.324219 20.960938 L 17.195312 28.089844 C 17.144531 28.140625 17.09375 28.167969 17.015625 28.167969 Z M 17.015625 28.167969 "/><path style=" stroke:none;fill-rule:nonzero;fill:#000000;fill-opacity:1;" d="M 19.089844 30.214844 C 19.015625 30.214844 18.964844 30.1875 18.914062 30.136719 C 18.8125 30.039062 18.8125 29.886719 18.914062 29.785156 L 26.042969 22.65625 C 26.144531 22.554688 26.296875 22.554688 26.394531 22.65625 C 26.496094 22.757812 26.496094 22.90625 26.394531 23.007812 L 19.265625 30.136719 C 19.214844 30.1875 19.164062 30.214844 19.089844 30.214844 Z M 19.089844 30.214844 "/><path style=" stroke:none;fill-rule:nonzero;fill:#000000;fill-opacity:1;" d="M 14.363281 28.847656 C 14.285156 28.847656 14.234375 28.824219 14.183594 28.773438 C 14.082031 28.671875 14.082031 28.519531 14.183594 28.417969 L 22.984375 19.597656 C 23.085938 19.496094 23.234375 19.496094 23.335938 19.597656 C 23.4375 19.695312 23.4375 19.847656 23.335938 19.949219 L 14.539062 28.773438 C 14.488281 28.824219 14.4375 28.847656 14.363281 28.847656 Z M 14.363281 28.847656 "/><path style=" stroke:none;fill-rule:nonzero;fill:#000000;fill-opacity:1;" d="M 17.546875 29.835938 C 17.472656 29.835938 17.421875 29.808594 17.371094 29.757812 C 17.269531 29.660156 17.269531 29.507812 17.371094 29.40625 L 25.082031 21.695312 C 25.183594 21.59375 25.335938 21.59375 25.433594 21.695312 C 25.535156 21.796875 25.535156 21.945312 25.433594 22.046875 L 17.722656 29.757812 C 17.675781 29.808594 17.625 29.835938 17.546875 29.835938 Z M 17.546875 29.835938 "/><path style=" stroke:none;fill-rule:nonzero;fill:#000000;fill-opacity:1;" d="M 26.597656 19.367188 C 26.523438 19.367188 26.472656 19.34375 26.421875 19.292969 L 16.914062 9.785156 C 16.8125 9.683594 16.8125 9.535156 16.914062 9.433594 C 17.015625 9.332031 17.167969 9.332031 17.269531 9.433594 L 26.777344 18.9375 C 26.875 19.039062 26.875 19.191406 26.777344 19.292969 C 26.726562 19.34375 26.675781 19.367188 26.597656 19.367188 Z M 26.597656 19.367188 "/></g></svg>