<svg width="176" height="46" viewBox="0 0 176 46" fill="none" xmlns="http://www.w3.org/2000/svg">
<g clip-path="url(#clip0_1_113)">
<path d="M19.6026 38.7997V39.7919H19.5544V39.8304H18.5623H5.81335H4.59963L4.84045 38.6408C4.88379 38.4289 4.93196 38.2218 4.9753 38.0243C5.01865 37.8365 5.07163 37.6438 5.12461 37.4512L5.15351 37.3452L5.18241 37.2441C5.22575 37.0947 5.2691 36.9551 5.31245 36.8106V36.8058L5.31726 36.7913C5.3558 36.6757 5.39433 36.5601 5.43767 36.4397C5.48102 36.3097 5.52918 36.1796 5.57735 36.0496C5.63514 35.8858 5.70257 35.7173 5.77 35.5535C5.8278 35.409 5.8856 35.2742 5.95302 35.1249C5.97711 35.0671 6.00119 35.0044 6.0349 34.9466C6.09752 34.807 6.15531 34.6817 6.21311 34.5613C6.23719 34.5084 6.26127 34.4554 6.29017 34.4072C6.35278 34.282 6.42021 34.1519 6.48764 34.0267C6.51172 33.9786 6.54062 33.9208 6.57915 33.8581C6.57915 33.8533 6.58397 33.8533 6.58397 33.8485L6.58878 33.8341L6.59842 33.8148C6.68511 33.651 6.76699 33.5066 6.84887 33.3717C6.92593 33.2417 7.00781 33.102 7.09932 32.9623L7.13303 32.9141C7.15712 32.8756 7.18601 32.8323 7.2101 32.7937L7.24381 32.7407C7.3305 32.6011 7.43165 32.4518 7.52798 32.3121C7.63875 32.1532 7.75435 31.9894 7.88439 31.816C7.97108 31.6956 8.06259 31.5752 8.183 31.4211L8.19263 31.4114L8.20227 31.4018L8.22635 31.3729C8.26006 31.3247 8.30341 31.2766 8.33712 31.2332C8.43345 31.1128 8.5346 30.9876 8.64537 30.8624C8.66945 30.8287 8.69354 30.8094 8.70798 30.7901C8.81876 30.6601 8.92472 30.5397 9.04513 30.4144C9.07884 30.3759 9.11256 30.3374 9.15109 30.3037C9.26668 30.1784 9.39191 30.0484 9.55566 29.8846C10.7935 28.6468 12.1854 27.6161 13.7074 26.8166H6.28054C4.33473 28.7865 2.80312 31.0695 1.72426 33.6077C0.587596 36.2856 0.00963273 39.1321 0.00481636 42.07L0 43.987V44.3145H23.9903V25.8196V24.8275H23.9951V24.2736L23.9903 21.2634V6.66977V5.6776H24.0481L25.0403 5.66797H37.7892H39.0029L38.7621 6.85761C38.0878 10.1761 36.4551 13.2056 34.0421 15.6138C33.5315 16.1243 32.9969 16.5963 32.4334 17.0346H38.791C40.0577 15.4693 41.0932 13.7402 41.8783 11.8859C43.0101 9.208 43.5881 6.36152 43.5977 3.42836L43.6025 1.17912H19.6026V38.7997Z" fill="#111926"/>
<path d="M4.49837 20.3386V19.3464V6.65051V5.4416L5.68319 5.6776C9.02093 6.34226 12.0697 7.97501 14.4875 10.3976C14.6513 10.5614 14.815 10.7348 14.974 10.9082V4.93588C13.6591 3.98706 12.2383 3.19236 10.7452 2.56142C8.07211 1.42957 5.22082 0.856422 2.28284 0.856422H0.00469971V23.5126H14.9788V20.3386H5.49054H4.49837Z" fill="#B69D75"/>
<path d="M38.7814 23.5126V24.5048V38.5204V39.7245L37.5966 39.4885C34.2636 38.8286 31.2197 37.2007 28.7874 34.7732C28.7344 34.7203 28.6863 34.6721 28.6333 34.6191V40.471C29.847 41.3091 31.1523 42.0267 32.5249 42.6047C35.2076 43.7413 38.0541 44.3145 40.9921 44.3145H43.2702V20.3386H28.6381V23.5126H37.7892H38.7814Z" fill="#B69D75"/>
</g>
<path d="M69.4689 19.8106C69.4689 19.3609 69.3997 18.9574 69.2613 18.6C69.1344 18.2311 68.8922 17.8967 68.5346 17.5969C68.177 17.2856 67.6752 16.9801 67.0293 16.6804C66.3833 16.3806 65.547 16.0693 64.5204 15.7465C63.3784 15.3776 62.2941 14.9625 61.2675 14.5013C60.2524 14.0402 59.3527 13.504 58.5683 12.893C57.7954 12.2704 57.1841 11.5498 56.7342 10.7313C56.2959 9.91267 56.0767 8.96151 56.0767 7.87775C56.0767 6.82859 56.3074 5.87742 56.7688 5.02426C57.2302 4.15956 57.8762 3.42168 58.7067 2.81063C59.5372 2.18805 60.5177 1.70959 61.6481 1.37524C62.7901 1.04089 64.0417 0.873713 65.4028 0.873713C67.26 0.873713 68.8806 1.20806 70.2648 1.87676C71.649 2.54546 72.7218 3.46204 73.4831 4.6265C74.256 5.79095 74.6424 7.12259 74.6424 8.62139H69.4862C69.4862 7.88352 69.3305 7.23788 69.0191 6.68447C68.7191 6.11954 68.2577 5.67566 67.6348 5.35284C67.0235 5.03002 66.2506 4.86861 65.3163 4.86861C64.4166 4.86861 63.6668 5.00696 63.067 5.28366C62.4671 5.54884 62.0173 5.91201 61.7174 6.37318C61.4174 6.82282 61.2675 7.33011 61.2675 7.89505C61.2675 8.32163 61.3713 8.70786 61.5789 9.05374C61.7981 9.39962 62.1211 9.72244 62.5479 10.0222C62.9747 10.322 63.4995 10.6044 64.1224 10.8696C64.7453 11.1348 65.4663 11.3942 66.2852 11.6478C67.6579 12.0629 68.8633 12.5298 69.9015 13.0486C70.9512 13.5675 71.8278 14.1497 72.5315 14.7953C73.2351 15.441 73.7657 16.1731 74.1233 16.9917C74.4809 17.8102 74.6597 18.7383 74.6597 19.776C74.6597 20.8713 74.4463 21.8512 74.0195 22.7159C73.5927 23.5806 72.9756 24.3127 72.1681 24.9123C71.3607 25.5118 70.3975 25.9672 69.2786 26.2785C68.1597 26.5898 66.9081 26.7454 65.5239 26.7454C64.2781 26.7454 63.0497 26.584 61.8385 26.2612C60.6273 25.9268 59.5257 25.4253 58.5337 24.7566C57.5532 24.0879 56.7688 23.2348 56.1805 22.1971C55.5922 21.1595 55.2981 19.9316 55.2981 18.5135H60.5062C60.5062 19.2975 60.6273 19.9604 60.8695 20.5023C61.1118 21.0442 61.4521 21.4823 61.8904 21.8167C62.3403 22.151 62.8709 22.3931 63.4822 22.543C64.1051 22.6929 64.7857 22.7678 65.5239 22.7678C66.4237 22.7678 67.1619 22.641 67.7387 22.3874C68.327 22.1337 68.7595 21.7821 69.0364 21.3324C69.3247 20.8828 69.4689 20.3755 69.4689 19.8106Z" fill="#111926"/>
<path d="M89.4534 1.21959V26.3995H84.2799V1.21959H89.4534ZM97.205 1.21959V5.28366H76.6495V1.21959H97.205Z" fill="#111926"/>
<path d="M105.683 1.21959V26.3995H100.51V1.21959H105.683Z" fill="#111926"/>
<path d="M121.29 1.21959V26.3995H116.117V1.21959H121.29ZM129.042 1.21959V5.28366H108.486V1.21959H129.042Z" fill="#111926"/>
<path d="M146.119 18.0466H151.293C151.189 19.7414 150.722 21.246 149.891 22.5603C149.072 23.8746 147.925 24.9007 146.448 25.6386C144.983 26.3765 143.218 26.7454 141.154 26.7454C139.539 26.7454 138.091 26.4687 136.811 25.9153C135.53 25.3504 134.434 24.5433 133.523 23.4942C132.623 22.445 131.937 21.1768 131.464 19.6895C130.991 18.2022 130.755 16.5362 130.755 14.6916V12.9449C130.755 11.1002 130.997 9.43421 131.481 7.94693C131.977 6.44812 132.681 5.17414 133.592 4.12497C134.515 3.07581 135.617 2.26876 136.897 1.70382C138.178 1.13889 139.608 0.856419 141.188 0.856419C143.288 0.856419 145.058 1.23689 146.5 1.99782C147.953 2.75875 149.078 3.80792 149.874 5.14531C150.682 6.48271 151.166 8.00458 151.328 9.71091H146.137C146.079 8.69633 145.877 7.8374 145.531 7.13411C145.185 6.4193 144.66 5.88319 143.957 5.52578C143.264 5.15684 142.342 4.97237 141.188 4.97237C140.323 4.97237 139.568 5.13378 138.922 5.4566C138.276 5.77942 137.733 6.26942 137.295 6.92659C136.857 7.58376 136.528 8.41387 136.309 9.41691C136.101 10.4084 135.997 11.5729 135.997 12.9103V14.6916C135.997 15.9944 136.095 17.1415 136.292 18.1331C136.488 19.113 136.788 19.9431 137.191 20.6234C137.607 21.2921 138.137 21.7994 138.783 22.1452C139.441 22.4796 140.231 22.6468 141.154 22.6468C142.238 22.6468 143.132 22.4738 143.835 22.1279C144.539 21.7821 145.075 21.269 145.445 20.5888C145.825 19.9086 146.05 19.0612 146.119 18.0466Z" fill="#111926"/>
<path d="M171.502 11.4749V15.5217H158.352V11.4749H171.502ZM159.892 1.21959V26.3995H154.702V1.21959H159.892ZM175.205 1.21959V26.3995H170.032V1.21959H175.205Z" fill="#111926"/>
<path d="M62.1837 40.793H64.7698C64.7179 41.6407 64.4843 42.3931 64.0692 43.0505C63.6598 43.7078 63.086 44.221 62.348 44.59C61.6157 44.9591 60.7335 45.1436 59.7013 45.1436C58.8941 45.1436 58.1704 45.0052 57.5304 44.7284C56.8903 44.4459 56.3426 44.0423 55.887 43.5175C55.4373 42.9928 55.0942 42.3585 54.8578 41.6147C54.6214 40.8709 54.5032 40.0377 54.5032 39.1151V38.2415C54.5032 37.319 54.6243 36.4857 54.8664 35.7419C55.1144 34.9923 55.4661 34.3552 55.9216 33.8304C56.3829 33.3057 56.9336 32.9021 57.5736 32.6196C58.2137 32.337 58.9287 32.1958 59.7186 32.1958C60.7681 32.1958 61.6532 32.386 62.3739 32.7666C63.1005 33.1472 63.6627 33.6719 64.0605 34.3407C64.4642 35.0096 64.7063 35.7707 64.7871 36.6241H62.1923C62.1635 36.1167 62.0626 35.6871 61.8896 35.3354C61.7166 34.9779 61.4542 34.7098 61.1025 34.531C60.7565 34.3465 60.2952 34.2543 59.7186 34.2543C59.2862 34.2543 58.9085 34.335 58.5856 34.4964C58.2627 34.6579 57.9917 34.9029 57.7726 35.2316C57.5535 35.5603 57.3891 35.9754 57.2796 36.4771C57.1758 36.973 57.1239 37.5554 57.1239 38.2242V39.1151C57.1239 39.7667 57.1729 40.3404 57.2709 40.8363C57.3689 41.3264 57.5189 41.7416 57.7207 42.0818C57.9283 42.4162 58.1935 42.6699 58.5164 42.8429C58.8451 43.0101 59.24 43.0937 59.7013 43.0937C60.2433 43.0937 60.6902 43.0072 61.042 42.8342C61.3937 42.6613 61.6618 42.4047 61.8463 42.0645C62.0366 41.7243 62.1491 41.3005 62.1837 40.793Z" fill="#70757D"/>
<path d="M78.5894 38.3799V38.9767C78.5894 39.9339 78.4597 40.793 78.2002 41.5542C77.9407 42.3153 77.5746 42.964 77.1018 43.5002C76.6289 44.0307 76.0639 44.4372 75.4065 44.7198C74.755 45.0023 74.0313 45.1436 73.2356 45.1436C72.4456 45.1436 71.722 45.0023 71.0646 44.7198C70.4131 44.4372 69.848 44.0307 69.3694 43.5002C68.8908 42.964 68.5189 42.3153 68.2536 41.5542C67.9942 40.793 67.8644 39.9339 67.8644 38.9767V38.3799C67.8644 37.417 67.9942 36.5578 68.2536 35.8025C68.5131 35.0413 68.8793 34.3926 69.3521 33.8564C69.8307 33.3201 70.3958 32.9108 71.0473 32.6282C71.7047 32.3457 72.4283 32.2044 73.2183 32.2044C74.014 32.2044 74.7377 32.3457 75.3892 32.6282C76.0466 32.9108 76.6116 33.3201 77.0845 33.8564C77.5631 34.3926 77.9321 35.0413 78.1916 35.8025C78.4568 36.5578 78.5894 37.417 78.5894 38.3799ZM75.9687 38.9767V38.3626C75.9687 37.6937 75.9082 37.1056 75.7871 36.5982C75.666 36.0908 75.4873 35.6641 75.2508 35.3181C75.0144 34.9721 74.7261 34.7127 74.3859 34.5397C74.0457 34.3609 73.6565 34.2716 73.2183 34.2716C72.7801 34.2716 72.3908 34.3609 72.0506 34.5397C71.7162 34.7127 71.4308 34.9721 71.1944 35.3181C70.9637 35.6641 70.7879 36.0908 70.6668 36.5982C70.5457 37.1056 70.4851 37.6937 70.4851 38.3626V38.9767C70.4851 39.6398 70.5457 40.228 70.6668 40.7411C70.7879 41.2486 70.9666 41.6781 71.203 42.0299C71.4394 42.3758 71.7277 42.6382 72.0679 42.817C72.4081 42.9957 72.7974 43.0851 73.2356 43.0851C73.6738 43.0851 74.063 42.9957 74.4032 42.817C74.7434 42.6382 75.0288 42.3758 75.2595 42.0299C75.4901 41.6781 75.666 41.2486 75.7871 40.7411C75.9082 40.228 75.9687 39.6398 75.9687 38.9767Z" fill="#70757D"/>
<path d="M92.4783 32.3774V44.9706H89.8835L84.8238 36.529V44.9706H82.229V32.3774H84.8238L89.8922 40.8276V32.3774H92.4783Z" fill="#70757D"/>
<path d="M103.063 41.6753C103.063 41.4504 103.029 41.2486 102.959 41.0698C102.896 40.8853 102.775 40.7181 102.596 40.5682C102.417 40.4125 102.167 40.2597 101.844 40.1098C101.521 39.9598 101.103 39.8042 100.589 39.6427C100.019 39.4582 99.4766 39.2506 98.9634 39.02C98.456 38.7893 98.0063 38.5212 97.6142 38.2156C97.2278 37.9042 96.9222 37.5438 96.6974 37.1344C96.4782 36.725 96.3687 36.2493 96.3687 35.7073C96.3687 35.1826 96.484 34.7069 96.7147 34.2802C96.9453 33.8477 97.2682 33.4787 97.6834 33.1731C98.0985 32.8617 98.5887 32.6224 99.1537 32.4552C99.7246 32.288 100.35 32.2044 101.031 32.2044C101.959 32.2044 102.769 32.3716 103.461 32.7061C104.153 33.0405 104.689 33.4989 105.07 34.0813C105.456 34.6637 105.649 35.3296 105.649 36.0792H103.072C103.072 35.7102 102.994 35.3873 102.838 35.1105C102.688 34.828 102.458 34.606 102.146 34.4445C101.841 34.2831 101.454 34.2024 100.987 34.2024C100.538 34.2024 100.163 34.2716 99.863 34.4099C99.5631 34.5426 99.3382 34.7242 99.1883 34.9548C99.0384 35.1797 98.9634 35.4334 98.9634 35.716C98.9634 35.9293 99.0153 36.1225 99.1191 36.2955C99.2287 36.4684 99.3901 36.6299 99.6035 36.7798C99.8168 36.9297 100.079 37.071 100.391 37.2036C100.702 37.3363 101.062 37.466 101.472 37.5928C102.158 37.8004 102.76 38.034 103.279 38.2934C103.804 38.5529 104.242 38.8441 104.594 39.167C104.946 39.4899 105.211 39.856 105.39 40.2654C105.569 40.6748 105.658 41.139 105.658 41.658C105.658 42.2057 105.551 42.6959 105.338 43.1283C105.125 43.5608 104.816 43.9269 104.412 44.2268C104.009 44.5266 103.527 44.7544 102.968 44.9101C102.409 45.0657 101.783 45.1436 101.091 45.1436C100.468 45.1436 99.8543 45.0629 99.2489 44.9014C98.6434 44.7342 98.0928 44.4834 97.5969 44.1489C97.1068 43.8145 96.7147 43.3878 96.4206 42.8688C96.1265 42.3499 95.9795 41.7358 95.9795 41.0266H98.5829C98.5829 41.4187 98.6434 41.7502 98.7645 42.0212C98.8856 42.2922 99.0557 42.5113 99.2748 42.6786C99.4997 42.8458 99.7649 42.9669 100.071 43.0418C100.382 43.1168 100.722 43.1543 101.091 43.1543C101.541 43.1543 101.91 43.0908 102.198 42.964C102.492 42.8371 102.709 42.6613 102.847 42.4364C102.991 42.2115 103.063 41.9578 103.063 41.6753Z" fill="#70757D"/>
<path d="M116.148 32.3774H118.734V40.6979C118.734 41.6666 118.526 42.4825 118.111 43.1456C117.702 43.8087 117.134 44.3075 116.407 44.6419C115.686 44.9764 114.856 45.1436 113.916 45.1436C112.976 45.1436 112.14 44.9764 111.408 44.6419C110.681 44.3075 110.111 43.8087 109.695 43.1456C109.286 42.4825 109.081 41.6666 109.081 40.6979V32.3774H111.676V40.6979C111.676 41.263 111.765 41.7243 111.944 42.0818C112.123 42.4393 112.379 42.7016 112.714 42.8688C113.054 43.0361 113.455 43.1197 113.916 43.1197C114.389 43.1197 114.79 43.0361 115.118 42.8688C115.453 42.7016 115.707 42.4393 115.88 42.0818C116.058 41.7243 116.148 41.263 116.148 40.6979V32.3774Z" fill="#70757D"/>
<path d="M130.737 42.9467V44.9706H124.397V42.9467H130.737ZM125.236 32.3774V44.9706H122.641V32.3774H125.236Z" fill="#70757D"/>
<path d="M137.655 32.3774V44.9706H135.069V32.3774H137.655ZM141.53 32.3774V34.4099H131.254V32.3774H141.53Z" fill="#70757D"/>
<path d="M147.539 32.3774V44.9706H144.953V32.3774H147.539Z" fill="#70757D"/>
<path d="M161.99 32.3774V44.9706H159.395L154.336 36.529V44.9706H151.741V32.3774H154.336L159.404 40.8276V32.3774H161.99Z" fill="#70757D"/>
<path d="M176 38.3886V43.3791C175.804 43.6156 175.501 43.8722 175.092 44.1489C174.682 44.4199 174.155 44.6535 173.509 44.8495C172.863 45.0456 172.082 45.1436 171.165 45.1436C170.352 45.1436 169.611 45.011 168.942 44.7457C168.273 44.4747 167.697 44.0797 167.212 43.5608C166.734 43.0418 166.365 42.4076 166.105 41.658C165.846 40.9026 165.716 40.0406 165.716 39.0719V38.2848C165.716 37.3161 165.84 36.454 166.088 35.6987C166.342 34.9433 166.702 34.3062 167.169 33.7872C167.636 33.2683 168.193 32.8733 168.838 32.6023C169.484 32.3313 170.202 32.1958 170.992 32.1958C172.088 32.1958 172.987 32.3745 173.691 32.732C174.394 33.0837 174.93 33.5739 175.299 34.2024C175.674 34.8251 175.905 35.5401 175.991 36.3474H173.474C173.411 35.9207 173.29 35.5488 173.111 35.2316C172.932 34.9145 172.676 34.6665 172.341 34.4878C172.013 34.309 171.586 34.2197 171.061 34.2197C170.629 34.2197 170.243 34.309 169.902 34.4878C169.568 34.6608 169.285 34.9174 169.055 35.2576C168.824 35.5978 168.648 36.0187 168.527 36.5203C168.406 37.022 168.345 37.6044 168.345 38.2675V39.0719C168.345 39.7292 168.409 40.3116 168.536 40.819C168.663 41.3206 168.85 41.7445 169.098 42.0904C169.352 42.4306 169.663 42.6872 170.032 42.8602C170.401 43.0332 170.831 43.1197 171.321 43.1197C171.73 43.1197 172.07 43.0851 172.341 43.0159C172.618 42.9467 172.84 42.8631 173.007 42.7651C173.18 42.6613 173.313 42.5632 173.405 42.471V40.2395H171.035V38.3886H176Z" fill="#70757D"/>
<defs>
<clipPath id="clip0_1_113">
<rect width="43.6025" height="43.4629" fill="white" transform="translate(0 0.856422)"/>
</clipPath>
</defs>
</svg>
